<mxfile host="app.diagrams.net" modified="2022-12-05T08:13:38.801Z" agent="5.0 (Windows NT 10.0; Win64; x64) AppleWebKit/537.36 (KHTML, like Gecko) Chrome/108.0.0.0 Safari/537.36" etag="Qr_pyiXQjCcj190RahsW" version="20.6.0" type="github">
  <diagram id="JbvjpjDxwqa3XQ7OUGH0" name="第 1 页">
    <mxGraphModel dx="3000" dy="3122" grid="1" gridSize="10" guides="1" tooltips="1" connect="1" arrows="1" fold="1" page="1" pageScale="1" pageWidth="1654" pageHeight="2336" background="#ffffff" math="1" shadow="0">
      <root>
        <mxCell id="0" />
        <mxCell id="1" parent="0" />
        <mxCell id="JXdEMuc-65xn1tnEhglr-95" value="" style="ellipse;whiteSpace=wrap;html=1;aspect=fixed;" parent="1" vertex="1">
          <mxGeometry x="160" y="1085" width="10" height="10" as="geometry" />
        </mxCell>
        <mxCell id="JXdEMuc-65xn1tnEhglr-96" value="" style="ellipse;whiteSpace=wrap;html=1;aspect=fixed;" parent="1" vertex="1">
          <mxGeometry x="170" y="1085" width="10" height="10" as="geometry" />
        </mxCell>
        <mxCell id="JXdEMuc-65xn1tnEhglr-97" value="" style="ellipse;whiteSpace=wrap;html=1;aspect=fixed;fillColor=default;" parent="1" vertex="1">
          <mxGeometry x="180" y="1085" width="10" height="10" as="geometry" />
        </mxCell>
        <mxCell id="JXdEMuc-65xn1tnEhglr-109" value="" style="ellipse;whiteSpace=wrap;html=1;aspect=fixed;" parent="1" vertex="1">
          <mxGeometry x="150" y="1085" width="10" height="10" as="geometry" />
        </mxCell>
        <mxCell id="JXdEMuc-65xn1tnEhglr-126" value="" style="ellipse;whiteSpace=wrap;html=1;aspect=fixed;fillStyle=auto;fillColor=#CC99FF;gradientColor=none;" parent="1" vertex="1">
          <mxGeometry x="930" y="1265" width="10" height="10" as="geometry" />
        </mxCell>
        <mxCell id="JXdEMuc-65xn1tnEhglr-127" value="" style="ellipse;whiteSpace=wrap;html=1;aspect=fixed;fillStyle=auto;fillColor=#7F00FF;gradientColor=none;" parent="1" vertex="1">
          <mxGeometry x="950" y="1265" width="10" height="10" as="geometry" />
        </mxCell>
        <mxCell id="JXdEMuc-65xn1tnEhglr-131" value="" style="ellipse;whiteSpace=wrap;html=1;aspect=fixed;fillStyle=auto;fillColor=#6600CC;gradientColor=none;" parent="1" vertex="1">
          <mxGeometry x="960" y="1265" width="10" height="10" as="geometry" />
        </mxCell>
        <mxCell id="JXdEMuc-65xn1tnEhglr-136" value="" style="endArrow=classic;html=1;rounded=0;strokeWidth=2;" parent="1" edge="1">
          <mxGeometry width="50" height="50" relative="1" as="geometry">
            <mxPoint x="192" y="1037" as="sourcePoint" />
            <mxPoint x="192" y="1000" as="targetPoint" />
            <Array as="points">
              <mxPoint x="192" y="1037" />
              <mxPoint x="192" y="1007" />
            </Array>
          </mxGeometry>
        </mxCell>
        <mxCell id="JXdEMuc-65xn1tnEhglr-236" value="" style="rounded=0;whiteSpace=wrap;html=1;fillColor=none;strokeColor=#1A1A1A;" parent="1" vertex="1">
          <mxGeometry x="1025" y="1830" width="60" height="20" as="geometry" />
        </mxCell>
        <mxCell id="JXdEMuc-65xn1tnEhglr-250" value="" style="ellipse;whiteSpace=wrap;html=1;aspect=fixed;fillColor=#330033;" parent="1" vertex="1">
          <mxGeometry x="980" y="1265" width="10" height="10" as="geometry" />
        </mxCell>
        <mxCell id="JXdEMuc-65xn1tnEhglr-251" value="" style="ellipse;whiteSpace=wrap;html=1;aspect=fixed;" parent="1" vertex="1">
          <mxGeometry x="997" y="1835" width="10" height="10" as="geometry" />
        </mxCell>
        <mxCell id="JXdEMuc-65xn1tnEhglr-259" value="" style="endArrow=none;dashed=1;html=1;dashPattern=1 3;strokeWidth=2;rounded=0;strokeColor=default;" parent="1" edge="1">
          <mxGeometry width="50" height="50" relative="1" as="geometry">
            <mxPoint x="400" y="936" as="sourcePoint" />
            <mxPoint x="400" y="896" as="targetPoint" />
            <Array as="points">
              <mxPoint x="400" y="936" />
            </Array>
          </mxGeometry>
        </mxCell>
        <mxCell id="JXdEMuc-65xn1tnEhglr-308" value="" style="rounded=0;whiteSpace=wrap;html=1;fillColor=#e1d5e7;strokeColor=#9673a6;" parent="1" vertex="1">
          <mxGeometry x="789" y="1830" width="60" height="20" as="geometry" />
        </mxCell>
        <mxCell id="JXdEMuc-65xn1tnEhglr-309" value="" style="rounded=0;whiteSpace=wrap;html=1;fillColor=none;strokeColor=#1A1A1A;" parent="1" vertex="1">
          <mxGeometry x="947" y="1830" width="60" height="20" as="geometry" />
        </mxCell>
        <mxCell id="JXdEMuc-65xn1tnEhglr-310" value="" style="rounded=0;whiteSpace=wrap;html=1;fillColor=#e1d5e7;strokeColor=#9673a6;" parent="1" vertex="1">
          <mxGeometry x="867" y="1830" width="60" height="20" as="geometry" />
        </mxCell>
        <mxCell id="JXdEMuc-65xn1tnEhglr-313" value="" style="ellipse;whiteSpace=wrap;html=1;aspect=fixed;" parent="1" vertex="1">
          <mxGeometry x="987" y="1835" width="10" height="10" as="geometry" />
        </mxCell>
        <mxCell id="JXdEMuc-65xn1tnEhglr-314" value="" style="ellipse;whiteSpace=wrap;html=1;aspect=fixed;" parent="1" vertex="1">
          <mxGeometry x="977" y="1835" width="10" height="10" as="geometry" />
        </mxCell>
        <mxCell id="JXdEMuc-65xn1tnEhglr-315" value="" style="ellipse;whiteSpace=wrap;html=1;aspect=fixed;" parent="1" vertex="1">
          <mxGeometry x="967" y="1835" width="10" height="10" as="geometry" />
        </mxCell>
        <mxCell id="JXdEMuc-65xn1tnEhglr-316" value="" style="ellipse;whiteSpace=wrap;html=1;aspect=fixed;" parent="1" vertex="1">
          <mxGeometry x="957" y="1835" width="10" height="10" as="geometry" />
        </mxCell>
        <mxCell id="JXdEMuc-65xn1tnEhglr-317" value="" style="ellipse;whiteSpace=wrap;html=1;aspect=fixed;" parent="1" vertex="1">
          <mxGeometry x="947" y="1835" width="10" height="10" as="geometry" />
        </mxCell>
        <mxCell id="JXdEMuc-65xn1tnEhglr-318" value="" style="ellipse;whiteSpace=wrap;html=1;aspect=fixed;" parent="1" vertex="1">
          <mxGeometry x="1025" y="1835" width="10" height="10" as="geometry" />
        </mxCell>
        <mxCell id="JXdEMuc-65xn1tnEhglr-319" value="" style="ellipse;whiteSpace=wrap;html=1;aspect=fixed;" parent="1" vertex="1">
          <mxGeometry x="1035" y="1835" width="10" height="10" as="geometry" />
        </mxCell>
        <mxCell id="JXdEMuc-65xn1tnEhglr-320" value="" style="ellipse;whiteSpace=wrap;html=1;aspect=fixed;" parent="1" vertex="1">
          <mxGeometry x="1045" y="1835" width="10" height="10" as="geometry" />
        </mxCell>
        <mxCell id="JXdEMuc-65xn1tnEhglr-321" value="" style="ellipse;whiteSpace=wrap;html=1;aspect=fixed;" parent="1" vertex="1">
          <mxGeometry x="1055" y="1835" width="10" height="10" as="geometry" />
        </mxCell>
        <mxCell id="JXdEMuc-65xn1tnEhglr-322" value="" style="ellipse;whiteSpace=wrap;html=1;aspect=fixed;" parent="1" vertex="1">
          <mxGeometry x="1065" y="1835" width="10" height="10" as="geometry" />
        </mxCell>
        <mxCell id="JXdEMuc-65xn1tnEhglr-323" value="" style="ellipse;whiteSpace=wrap;html=1;aspect=fixed;" parent="1" vertex="1">
          <mxGeometry x="1075" y="1835" width="10" height="10" as="geometry" />
        </mxCell>
        <mxCell id="JXdEMuc-65xn1tnEhglr-324" value="" style="ellipse;whiteSpace=wrap;html=1;aspect=fixed;" parent="1" vertex="1">
          <mxGeometry x="917" y="1835" width="10" height="10" as="geometry" />
        </mxCell>
        <mxCell id="JXdEMuc-65xn1tnEhglr-325" value="" style="ellipse;whiteSpace=wrap;html=1;aspect=fixed;" parent="1" vertex="1">
          <mxGeometry x="820" y="1835" width="10" height="10" as="geometry" />
        </mxCell>
        <mxCell id="JXdEMuc-65xn1tnEhglr-326" value="" style="ellipse;whiteSpace=wrap;html=1;aspect=fixed;" parent="1" vertex="1">
          <mxGeometry x="830" y="1835" width="10" height="10" as="geometry" />
        </mxCell>
        <mxCell id="JXdEMuc-65xn1tnEhglr-327" value="" style="ellipse;whiteSpace=wrap;html=1;aspect=fixed;" parent="1" vertex="1">
          <mxGeometry x="810" y="1835" width="10" height="10" as="geometry" />
        </mxCell>
        <mxCell id="JXdEMuc-65xn1tnEhglr-328" value="" style="ellipse;whiteSpace=wrap;html=1;aspect=fixed;" parent="1" vertex="1">
          <mxGeometry x="800" y="1835" width="10" height="10" as="geometry" />
        </mxCell>
        <mxCell id="JXdEMuc-65xn1tnEhglr-329" value="" style="ellipse;whiteSpace=wrap;html=1;aspect=fixed;" parent="1" vertex="1">
          <mxGeometry x="790" y="1835" width="10" height="10" as="geometry" />
        </mxCell>
        <mxCell id="JXdEMuc-65xn1tnEhglr-330" value="" style="ellipse;whiteSpace=wrap;html=1;aspect=fixed;" parent="1" vertex="1">
          <mxGeometry x="839" y="1835" width="10" height="10" as="geometry" />
        </mxCell>
        <mxCell id="JXdEMuc-65xn1tnEhglr-331" value="" style="ellipse;whiteSpace=wrap;html=1;aspect=fixed;" parent="1" vertex="1">
          <mxGeometry x="907" y="1835" width="10" height="10" as="geometry" />
        </mxCell>
        <mxCell id="JXdEMuc-65xn1tnEhglr-332" value="" style="ellipse;whiteSpace=wrap;html=1;aspect=fixed;" parent="1" vertex="1">
          <mxGeometry x="897" y="1835" width="10" height="10" as="geometry" />
        </mxCell>
        <mxCell id="JXdEMuc-65xn1tnEhglr-333" value="" style="ellipse;whiteSpace=wrap;html=1;aspect=fixed;" parent="1" vertex="1">
          <mxGeometry x="887" y="1835" width="10" height="10" as="geometry" />
        </mxCell>
        <mxCell id="JXdEMuc-65xn1tnEhglr-334" value="" style="ellipse;whiteSpace=wrap;html=1;aspect=fixed;" parent="1" vertex="1">
          <mxGeometry x="877" y="1835" width="10" height="10" as="geometry" />
        </mxCell>
        <mxCell id="JXdEMuc-65xn1tnEhglr-335" value="" style="ellipse;whiteSpace=wrap;html=1;aspect=fixed;" parent="1" vertex="1">
          <mxGeometry x="867" y="1835" width="10" height="10" as="geometry" />
        </mxCell>
        <mxCell id="JXdEMuc-65xn1tnEhglr-339" value="$$Quadrupler~Q$$&amp;nbsp;&amp;nbsp;" style="rounded=1;whiteSpace=wrap;html=1;fillStyle=auto;strokeWidth=2;fillColor=none;gradientColor=none;strokeColor=none;" parent="1" vertex="1">
          <mxGeometry x="660" y="1855" width="120" height="20" as="geometry" />
        </mxCell>
        <mxCell id="JXdEMuc-65xn1tnEhglr-340" value="&lt;font style=&quot;font-size: 15px;&quot;&gt;$$Feature~Embedding$$&lt;/font&gt;" style="rounded=1;whiteSpace=wrap;html=1;fillStyle=auto;strokeColor=#1A1A1A;strokeWidth=2;fillColor=none;gradientColor=none;" parent="1" vertex="1">
          <mxGeometry x="776" y="1740" width="320" height="40" as="geometry" />
        </mxCell>
        <mxCell id="JXdEMuc-65xn1tnEhglr-343" value="" style="endArrow=none;dashed=1;html=1;rounded=0;strokeColor=default;strokeWidth=3;" parent="1" edge="1">
          <mxGeometry width="50" height="50" relative="1" as="geometry">
            <mxPoint x="780" y="1880" as="sourcePoint" />
            <mxPoint x="1100" y="1880" as="targetPoint" />
          </mxGeometry>
        </mxCell>
        <mxCell id="JXdEMuc-65xn1tnEhglr-344" value="" style="endArrow=none;dashed=1;html=1;rounded=0;strokeColor=default;strokeWidth=3;" parent="1" edge="1">
          <mxGeometry width="50" height="50" relative="1" as="geometry">
            <mxPoint x="780" y="1820" as="sourcePoint" />
            <mxPoint x="1100" y="1820" as="targetPoint" />
          </mxGeometry>
        </mxCell>
        <mxCell id="JXdEMuc-65xn1tnEhglr-345" value="" style="endArrow=none;dashed=1;html=1;rounded=0;strokeColor=default;strokeWidth=3;" parent="1" edge="1">
          <mxGeometry width="50" height="50" relative="1" as="geometry">
            <mxPoint x="779" y="1880" as="sourcePoint" />
            <mxPoint x="779" y="1820" as="targetPoint" />
          </mxGeometry>
        </mxCell>
        <mxCell id="JXdEMuc-65xn1tnEhglr-347" value="" style="endArrow=none;dashed=1;html=1;rounded=0;strokeColor=default;strokeWidth=3;" parent="1" edge="1">
          <mxGeometry width="50" height="50" relative="1" as="geometry">
            <mxPoint x="1095" y="1880" as="sourcePoint" />
            <mxPoint x="1095" y="1820" as="targetPoint" />
          </mxGeometry>
        </mxCell>
        <mxCell id="JXdEMuc-65xn1tnEhglr-350" value="" style="endArrow=classic;html=1;rounded=0;strokeWidth=2;" parent="1" edge="1">
          <mxGeometry width="50" height="50" relative="1" as="geometry">
            <mxPoint x="341" y="658" as="sourcePoint" />
            <mxPoint x="341" y="610" as="targetPoint" />
            <Array as="points">
              <mxPoint x="341" y="658" />
              <mxPoint x="341" y="628" />
            </Array>
          </mxGeometry>
        </mxCell>
        <mxCell id="JXdEMuc-65xn1tnEhglr-351" value="$$Regroup$$&amp;nbsp;&amp;nbsp;" style="rounded=1;whiteSpace=wrap;html=1;fillStyle=auto;strokeWidth=2;fillColor=none;gradientColor=none;strokeColor=none;" parent="1" vertex="1">
          <mxGeometry x="324" y="524" width="120" height="20" as="geometry" />
        </mxCell>
        <mxCell id="JXdEMuc-65xn1tnEhglr-354" value="$$o$$" style="text;html=1;align=center;verticalAlign=middle;resizable=0;points=[];autosize=1;strokeColor=none;fillColor=none;fontSize=15;" parent="1" vertex="1">
          <mxGeometry x="860" y="1850" width="70" height="30" as="geometry" />
        </mxCell>
        <mxCell id="JXdEMuc-65xn1tnEhglr-355" value="$$n$$" style="text;html=1;align=center;verticalAlign=middle;resizable=0;points=[];autosize=1;strokeColor=none;fillColor=none;fontSize=15;" parent="1" vertex="1">
          <mxGeometry x="785" y="1850" width="70" height="30" as="geometry" />
        </mxCell>
        <mxCell id="JXdEMuc-65xn1tnEhglr-356" value="$$m$$" style="text;html=1;align=center;verticalAlign=middle;resizable=0;points=[];autosize=1;strokeColor=none;fillColor=none;fontSize=15;" parent="1" vertex="1">
          <mxGeometry x="940" y="1850" width="70" height="30" as="geometry" />
        </mxCell>
        <mxCell id="JXdEMuc-65xn1tnEhglr-357" value="$$p$$" style="text;html=1;align=center;verticalAlign=middle;resizable=0;points=[];autosize=1;strokeColor=none;fillColor=none;fontSize=15;" parent="1" vertex="1">
          <mxGeometry x="1025" y="1850" width="70" height="30" as="geometry" />
        </mxCell>
        <mxCell id="JXdEMuc-65xn1tnEhglr-358" value="" style="rounded=0;whiteSpace=wrap;html=1;fillColor=#e1d5e7;strokeColor=#9673a6;" parent="1" vertex="1">
          <mxGeometry x="890" y="1510" width="100" height="20" as="geometry" />
        </mxCell>
        <mxCell id="JXdEMuc-65xn1tnEhglr-363" value="" style="endArrow=classic;html=1;rounded=0;strokeWidth=2;" parent="1" edge="1">
          <mxGeometry width="50" height="50" relative="1" as="geometry">
            <mxPoint x="341" y="533" as="sourcePoint" />
            <mxPoint x="341" y="503" as="targetPoint" />
            <Array as="points">
              <mxPoint x="341" y="550" />
              <mxPoint x="341" y="533" />
              <mxPoint x="341" y="503" />
            </Array>
          </mxGeometry>
        </mxCell>
        <mxCell id="JXdEMuc-65xn1tnEhglr-364" value="" style="endArrow=none;html=1;rounded=0;strokeColor=default;strokeWidth=2;" parent="1" edge="1">
          <mxGeometry width="50" height="50" relative="1" as="geometry">
            <mxPoint x="341" y="735" as="sourcePoint" />
            <mxPoint x="341" y="700" as="targetPoint" />
          </mxGeometry>
        </mxCell>
        <mxCell id="JXdEMuc-65xn1tnEhglr-366" value="" style="rounded=0;whiteSpace=wrap;html=1;fillColor=#e1d5e7;strokeColor=#9673a6;" parent="1" vertex="1">
          <mxGeometry x="710" y="1650" width="100" height="20" as="geometry" />
        </mxCell>
        <mxCell id="JXdEMuc-65xn1tnEhglr-367" value="" style="rounded=0;whiteSpace=wrap;html=1;fillColor=none;strokeColor=#1A1A1A;" parent="1" vertex="1">
          <mxGeometry x="1069" y="1650" width="100" height="20" as="geometry" />
        </mxCell>
        <mxCell id="JXdEMuc-65xn1tnEhglr-368" value="" style="rounded=0;whiteSpace=wrap;html=1;fillColor=#e1d5e7;strokeColor=#9673a6;" parent="1" vertex="1">
          <mxGeometry x="830" y="1650" width="100" height="20" as="geometry" />
        </mxCell>
        <mxCell id="JXdEMuc-65xn1tnEhglr-369" value="" style="rounded=0;whiteSpace=wrap;html=1;fillColor=none;strokeColor=#1A1A1A;" parent="1" vertex="1">
          <mxGeometry x="949" y="1650" width="100" height="20" as="geometry" />
        </mxCell>
        <mxCell id="JXdEMuc-65xn1tnEhglr-370" value="" style="ellipse;whiteSpace=wrap;html=1;aspect=fixed;" parent="1" vertex="1">
          <mxGeometry x="720" y="1655" width="10" height="10" as="geometry" />
        </mxCell>
        <mxCell id="JXdEMuc-65xn1tnEhglr-371" value="" style="ellipse;whiteSpace=wrap;html=1;aspect=fixed;" parent="1" vertex="1">
          <mxGeometry x="730" y="1655" width="10" height="10" as="geometry" />
        </mxCell>
        <mxCell id="JXdEMuc-65xn1tnEhglr-372" value="" style="ellipse;whiteSpace=wrap;html=1;aspect=fixed;" parent="1" vertex="1">
          <mxGeometry x="740" y="1655" width="10" height="10" as="geometry" />
        </mxCell>
        <mxCell id="JXdEMuc-65xn1tnEhglr-373" value="" style="ellipse;whiteSpace=wrap;html=1;aspect=fixed;" parent="1" vertex="1">
          <mxGeometry x="750" y="1655" width="10" height="10" as="geometry" />
        </mxCell>
        <mxCell id="JXdEMuc-65xn1tnEhglr-374" value="" style="ellipse;whiteSpace=wrap;html=1;aspect=fixed;" parent="1" vertex="1">
          <mxGeometry x="760" y="1655" width="10" height="10" as="geometry" />
        </mxCell>
        <mxCell id="JXdEMuc-65xn1tnEhglr-375" value="" style="ellipse;whiteSpace=wrap;html=1;aspect=fixed;" parent="1" vertex="1">
          <mxGeometry x="770" y="1655" width="10" height="10" as="geometry" />
        </mxCell>
        <mxCell id="JXdEMuc-65xn1tnEhglr-376" value="" style="ellipse;whiteSpace=wrap;html=1;aspect=fixed;" parent="1" vertex="1">
          <mxGeometry x="850" y="1655" width="10" height="10" as="geometry" />
        </mxCell>
        <mxCell id="JXdEMuc-65xn1tnEhglr-377" value="" style="ellipse;whiteSpace=wrap;html=1;aspect=fixed;" parent="1" vertex="1">
          <mxGeometry x="840" y="1655" width="10" height="10" as="geometry" />
        </mxCell>
        <mxCell id="JXdEMuc-65xn1tnEhglr-378" value="" style="ellipse;whiteSpace=wrap;html=1;aspect=fixed;" parent="1" vertex="1">
          <mxGeometry x="830" y="1655" width="10" height="10" as="geometry" />
        </mxCell>
        <mxCell id="JXdEMuc-65xn1tnEhglr-379" value="" style="ellipse;whiteSpace=wrap;html=1;aspect=fixed;" parent="1" vertex="1">
          <mxGeometry x="800" y="1655" width="10" height="10" as="geometry" />
        </mxCell>
        <mxCell id="JXdEMuc-65xn1tnEhglr-380" value="" style="ellipse;whiteSpace=wrap;html=1;aspect=fixed;" parent="1" vertex="1">
          <mxGeometry x="790" y="1655" width="10" height="10" as="geometry" />
        </mxCell>
        <mxCell id="JXdEMuc-65xn1tnEhglr-381" value="" style="ellipse;whiteSpace=wrap;html=1;aspect=fixed;" parent="1" vertex="1">
          <mxGeometry x="780" y="1655" width="10" height="10" as="geometry" />
        </mxCell>
        <mxCell id="JXdEMuc-65xn1tnEhglr-382" value="" style="ellipse;whiteSpace=wrap;html=1;aspect=fixed;" parent="1" vertex="1">
          <mxGeometry x="949" y="1655" width="10" height="10" as="geometry" />
        </mxCell>
        <mxCell id="JXdEMuc-65xn1tnEhglr-383" value="" style="ellipse;whiteSpace=wrap;html=1;aspect=fixed;" parent="1" vertex="1">
          <mxGeometry x="920" y="1655" width="10" height="10" as="geometry" />
        </mxCell>
        <mxCell id="JXdEMuc-65xn1tnEhglr-384" value="" style="ellipse;whiteSpace=wrap;html=1;aspect=fixed;" parent="1" vertex="1">
          <mxGeometry x="910" y="1655" width="10" height="10" as="geometry" />
        </mxCell>
        <mxCell id="JXdEMuc-65xn1tnEhglr-385" value="" style="ellipse;whiteSpace=wrap;html=1;aspect=fixed;" parent="1" vertex="1">
          <mxGeometry x="900" y="1655" width="10" height="10" as="geometry" />
        </mxCell>
        <mxCell id="JXdEMuc-65xn1tnEhglr-386" value="" style="ellipse;whiteSpace=wrap;html=1;aspect=fixed;" parent="1" vertex="1">
          <mxGeometry x="890" y="1655" width="10" height="10" as="geometry" />
        </mxCell>
        <mxCell id="JXdEMuc-65xn1tnEhglr-387" value="" style="ellipse;whiteSpace=wrap;html=1;aspect=fixed;" parent="1" vertex="1">
          <mxGeometry x="880" y="1655" width="10" height="10" as="geometry" />
        </mxCell>
        <mxCell id="JXdEMuc-65xn1tnEhglr-388" value="" style="ellipse;whiteSpace=wrap;html=1;aspect=fixed;" parent="1" vertex="1">
          <mxGeometry x="870" y="1655" width="10" height="10" as="geometry" />
        </mxCell>
        <mxCell id="JXdEMuc-65xn1tnEhglr-389" value="" style="ellipse;whiteSpace=wrap;html=1;aspect=fixed;" parent="1" vertex="1">
          <mxGeometry x="860" y="1655" width="10" height="10" as="geometry" />
        </mxCell>
        <mxCell id="JXdEMuc-65xn1tnEhglr-390" value="" style="ellipse;whiteSpace=wrap;html=1;aspect=fixed;" parent="1" vertex="1">
          <mxGeometry x="1029" y="1655" width="10" height="10" as="geometry" />
        </mxCell>
        <mxCell id="JXdEMuc-65xn1tnEhglr-391" value="" style="ellipse;whiteSpace=wrap;html=1;aspect=fixed;" parent="1" vertex="1">
          <mxGeometry x="1019" y="1655" width="10" height="10" as="geometry" />
        </mxCell>
        <mxCell id="JXdEMuc-65xn1tnEhglr-392" value="" style="ellipse;whiteSpace=wrap;html=1;aspect=fixed;" parent="1" vertex="1">
          <mxGeometry x="1009" y="1655" width="10" height="10" as="geometry" />
        </mxCell>
        <mxCell id="JXdEMuc-65xn1tnEhglr-393" value="" style="ellipse;whiteSpace=wrap;html=1;aspect=fixed;" parent="1" vertex="1">
          <mxGeometry x="999" y="1655" width="10" height="10" as="geometry" />
        </mxCell>
        <mxCell id="JXdEMuc-65xn1tnEhglr-394" value="" style="ellipse;whiteSpace=wrap;html=1;aspect=fixed;" parent="1" vertex="1">
          <mxGeometry x="989" y="1655" width="10" height="10" as="geometry" />
        </mxCell>
        <mxCell id="JXdEMuc-65xn1tnEhglr-395" value="" style="ellipse;whiteSpace=wrap;html=1;aspect=fixed;" parent="1" vertex="1">
          <mxGeometry x="979" y="1655" width="10" height="10" as="geometry" />
        </mxCell>
        <mxCell id="JXdEMuc-65xn1tnEhglr-396" value="" style="ellipse;whiteSpace=wrap;html=1;aspect=fixed;" parent="1" vertex="1">
          <mxGeometry x="969" y="1655" width="10" height="10" as="geometry" />
        </mxCell>
        <mxCell id="JXdEMuc-65xn1tnEhglr-397" value="" style="ellipse;whiteSpace=wrap;html=1;aspect=fixed;" parent="1" vertex="1">
          <mxGeometry x="959" y="1655" width="10" height="10" as="geometry" />
        </mxCell>
        <mxCell id="JXdEMuc-65xn1tnEhglr-404" value="" style="ellipse;whiteSpace=wrap;html=1;aspect=fixed;" parent="1" vertex="1">
          <mxGeometry x="1139" y="1655" width="10" height="10" as="geometry" />
        </mxCell>
        <mxCell id="JXdEMuc-65xn1tnEhglr-405" value="" style="ellipse;whiteSpace=wrap;html=1;aspect=fixed;" parent="1" vertex="1">
          <mxGeometry x="1129" y="1655" width="10" height="10" as="geometry" />
        </mxCell>
        <mxCell id="JXdEMuc-65xn1tnEhglr-406" value="" style="ellipse;whiteSpace=wrap;html=1;aspect=fixed;" parent="1" vertex="1">
          <mxGeometry x="1120" y="1655" width="10" height="10" as="geometry" />
        </mxCell>
        <mxCell id="JXdEMuc-65xn1tnEhglr-407" value="" style="ellipse;whiteSpace=wrap;html=1;aspect=fixed;" parent="1" vertex="1">
          <mxGeometry x="1110" y="1655" width="10" height="10" as="geometry" />
        </mxCell>
        <mxCell id="JXdEMuc-65xn1tnEhglr-408" value="" style="ellipse;whiteSpace=wrap;html=1;aspect=fixed;" parent="1" vertex="1">
          <mxGeometry x="1100" y="1655" width="10" height="10" as="geometry" />
        </mxCell>
        <mxCell id="JXdEMuc-65xn1tnEhglr-409" value="" style="ellipse;whiteSpace=wrap;html=1;aspect=fixed;" parent="1" vertex="1">
          <mxGeometry x="1090" y="1655" width="10" height="10" as="geometry" />
        </mxCell>
        <mxCell id="JXdEMuc-65xn1tnEhglr-410" value="" style="ellipse;whiteSpace=wrap;html=1;aspect=fixed;" parent="1" vertex="1">
          <mxGeometry x="1080" y="1655" width="10" height="10" as="geometry" />
        </mxCell>
        <mxCell id="JXdEMuc-65xn1tnEhglr-411" value="" style="ellipse;whiteSpace=wrap;html=1;aspect=fixed;" parent="1" vertex="1">
          <mxGeometry x="1069" y="1655" width="10" height="10" as="geometry" />
        </mxCell>
        <mxCell id="JXdEMuc-65xn1tnEhglr-412" value="" style="ellipse;whiteSpace=wrap;html=1;aspect=fixed;" parent="1" vertex="1">
          <mxGeometry x="1039" y="1655" width="10" height="10" as="geometry" />
        </mxCell>
        <mxCell id="JXdEMuc-65xn1tnEhglr-413" value="" style="ellipse;whiteSpace=wrap;html=1;aspect=fixed;" parent="1" vertex="1">
          <mxGeometry x="900" y="1515" width="10" height="10" as="geometry" />
        </mxCell>
        <mxCell id="JXdEMuc-65xn1tnEhglr-414" value="" style="ellipse;whiteSpace=wrap;html=1;aspect=fixed;" parent="1" vertex="1">
          <mxGeometry x="909" y="1515" width="10" height="10" as="geometry" />
        </mxCell>
        <mxCell id="JXdEMuc-65xn1tnEhglr-415" value="" style="ellipse;whiteSpace=wrap;html=1;aspect=fixed;" parent="1" vertex="1">
          <mxGeometry x="919" y="1515" width="10" height="10" as="geometry" />
        </mxCell>
        <mxCell id="JXdEMuc-65xn1tnEhglr-416" value="" style="ellipse;whiteSpace=wrap;html=1;aspect=fixed;" parent="1" vertex="1">
          <mxGeometry x="929" y="1515" width="10" height="10" as="geometry" />
        </mxCell>
        <mxCell id="JXdEMuc-65xn1tnEhglr-417" value="" style="ellipse;whiteSpace=wrap;html=1;aspect=fixed;" parent="1" vertex="1">
          <mxGeometry x="939" y="1515" width="10" height="10" as="geometry" />
        </mxCell>
        <mxCell id="JXdEMuc-65xn1tnEhglr-418" value="" style="ellipse;whiteSpace=wrap;html=1;aspect=fixed;fillColor=#660066;" parent="1" vertex="1">
          <mxGeometry x="970" y="1265" width="10" height="10" as="geometry" />
        </mxCell>
        <mxCell id="JXdEMuc-65xn1tnEhglr-419" value="" style="ellipse;whiteSpace=wrap;html=1;aspect=fixed;" parent="1" vertex="1">
          <mxGeometry x="1159" y="1655" width="10" height="10" as="geometry" />
        </mxCell>
        <mxCell id="JXdEMuc-65xn1tnEhglr-420" value="" style="ellipse;whiteSpace=wrap;html=1;aspect=fixed;" parent="1" vertex="1">
          <mxGeometry x="1149" y="1655" width="10" height="10" as="geometry" />
        </mxCell>
        <mxCell id="JXdEMuc-65xn1tnEhglr-421" value="" style="endArrow=none;dashed=1;html=1;rounded=0;strokeColor=default;strokeWidth=3;" parent="1" edge="1">
          <mxGeometry width="50" height="50" relative="1" as="geometry">
            <mxPoint x="700" y="1639" as="sourcePoint" />
            <mxPoint x="1175" y="1639" as="targetPoint" />
          </mxGeometry>
        </mxCell>
        <mxCell id="JXdEMuc-65xn1tnEhglr-422" value="" style="endArrow=none;dashed=1;html=1;rounded=0;strokeColor=default;strokeWidth=3;" parent="1" edge="1">
          <mxGeometry width="50" height="50" relative="1" as="geometry">
            <mxPoint x="702.5" y="1700" as="sourcePoint" />
            <mxPoint x="1177.5" y="1700" as="targetPoint" />
          </mxGeometry>
        </mxCell>
        <mxCell id="JXdEMuc-65xn1tnEhglr-423" value="" style="endArrow=none;dashed=1;html=1;rounded=0;strokeColor=default;strokeWidth=3;" parent="1" edge="1">
          <mxGeometry width="50" height="50" relative="1" as="geometry">
            <mxPoint x="701" y="1700" as="sourcePoint" />
            <mxPoint x="701" y="1640" as="targetPoint" />
          </mxGeometry>
        </mxCell>
        <mxCell id="JXdEMuc-65xn1tnEhglr-424" value="" style="endArrow=none;dashed=1;html=1;rounded=0;strokeColor=default;strokeWidth=3;" parent="1" edge="1">
          <mxGeometry width="50" height="50" relative="1" as="geometry">
            <mxPoint x="1177.5" y="1700" as="sourcePoint" />
            <mxPoint x="1177.5" y="1640" as="targetPoint" />
          </mxGeometry>
        </mxCell>
        <mxCell id="JXdEMuc-65xn1tnEhglr-426" value="$$o$$" style="text;html=1;align=center;verticalAlign=middle;resizable=0;points=[];autosize=1;strokeColor=none;fillColor=none;fontSize=15;" parent="1" vertex="1">
          <mxGeometry x="191" y="860" width="70" height="30" as="geometry" />
        </mxCell>
        <mxCell id="JXdEMuc-65xn1tnEhglr-428" value="$$o$$" style="text;html=1;align=center;verticalAlign=middle;resizable=0;points=[];autosize=1;strokeColor=none;fillColor=none;fontSize=15;" parent="1" vertex="1">
          <mxGeometry x="845" y="1670" width="70" height="30" as="geometry" />
        </mxCell>
        <mxCell id="JXdEMuc-65xn1tnEhglr-429" value="$$n$$" style="text;html=1;align=center;verticalAlign=middle;resizable=0;points=[];autosize=1;strokeColor=none;fillColor=none;fontSize=15;" parent="1" vertex="1">
          <mxGeometry x="725" y="1670" width="70" height="30" as="geometry" />
        </mxCell>
        <mxCell id="JXdEMuc-65xn1tnEhglr-430" value="$$m$$" style="text;html=1;align=center;verticalAlign=middle;resizable=0;points=[];autosize=1;strokeColor=none;fillColor=none;fontSize=15;" parent="1" vertex="1">
          <mxGeometry x="965" y="1670" width="70" height="30" as="geometry" />
        </mxCell>
        <mxCell id="JXdEMuc-65xn1tnEhglr-431" value="$$p$$" style="text;html=1;align=center;verticalAlign=middle;resizable=0;points=[];autosize=1;strokeColor=none;fillColor=none;fontSize=15;" parent="1" vertex="1">
          <mxGeometry x="1085" y="1670" width="70" height="30" as="geometry" />
        </mxCell>
        <mxCell id="JXdEMuc-65xn1tnEhglr-432" value="$$Quadrupler~Q_e$$&amp;nbsp;&amp;nbsp;" style="rounded=1;whiteSpace=wrap;html=1;fillStyle=auto;strokeWidth=2;fillColor=none;gradientColor=none;strokeColor=none;" parent="1" vertex="1">
          <mxGeometry x="-8" y="590" width="120" height="20" as="geometry" />
        </mxCell>
        <mxCell id="JXdEMuc-65xn1tnEhglr-433" value="" style="rounded=0;whiteSpace=wrap;html=1;fillColor=#e1d5e7;strokeColor=#9673a6;" parent="1" vertex="1">
          <mxGeometry x="890" y="1550" width="100" height="20" as="geometry" />
        </mxCell>
        <mxCell id="JXdEMuc-65xn1tnEhglr-434" value="" style="rounded=0;whiteSpace=wrap;html=1;fillColor=none;strokeColor=#1A1A1A;" parent="1" vertex="1">
          <mxGeometry x="890" y="1260" width="100" height="20" as="geometry" />
        </mxCell>
        <mxCell id="JXdEMuc-65xn1tnEhglr-435" value="" style="rounded=0;whiteSpace=wrap;html=1;fillColor=#e1d5e7;strokeColor=#9673a6;" parent="1" vertex="1">
          <mxGeometry x="740" y="1510" width="100" height="20" as="geometry" />
        </mxCell>
        <mxCell id="JXdEMuc-65xn1tnEhglr-437" value="" style="rounded=0;whiteSpace=wrap;html=1;fillColor=none;strokeColor=#1A1A1A;" parent="1" vertex="1">
          <mxGeometry x="1039" y="1510" width="100" height="20" as="geometry" />
        </mxCell>
        <mxCell id="JXdEMuc-65xn1tnEhglr-438" value="" style="rounded=0;whiteSpace=wrap;html=1;fillColor=none;strokeColor=#1A1A1A;" parent="1" vertex="1">
          <mxGeometry x="1039" y="1550" width="100" height="20" as="geometry" />
        </mxCell>
        <mxCell id="JXdEMuc-65xn1tnEhglr-439" value="" style="ellipse;whiteSpace=wrap;html=1;aspect=fixed;" parent="1" vertex="1">
          <mxGeometry x="810" y="1515" width="10" height="10" as="geometry" />
        </mxCell>
        <mxCell id="JXdEMuc-65xn1tnEhglr-440" value="" style="ellipse;whiteSpace=wrap;html=1;aspect=fixed;" parent="1" vertex="1">
          <mxGeometry x="800" y="1515" width="10" height="10" as="geometry" />
        </mxCell>
        <mxCell id="JXdEMuc-65xn1tnEhglr-441" value="" style="ellipse;whiteSpace=wrap;html=1;aspect=fixed;" parent="1" vertex="1">
          <mxGeometry x="789" y="1515" width="10" height="10" as="geometry" />
        </mxCell>
        <mxCell id="JXdEMuc-65xn1tnEhglr-442" value="" style="ellipse;whiteSpace=wrap;html=1;aspect=fixed;" parent="1" vertex="1">
          <mxGeometry x="779" y="1515" width="10" height="10" as="geometry" />
        </mxCell>
        <mxCell id="JXdEMuc-65xn1tnEhglr-443" value="" style="ellipse;whiteSpace=wrap;html=1;aspect=fixed;" parent="1" vertex="1">
          <mxGeometry x="770" y="1515" width="10" height="10" as="geometry" />
        </mxCell>
        <mxCell id="JXdEMuc-65xn1tnEhglr-444" value="" style="ellipse;whiteSpace=wrap;html=1;aspect=fixed;" parent="1" vertex="1">
          <mxGeometry x="759" y="1515" width="10" height="10" as="geometry" />
        </mxCell>
        <mxCell id="JXdEMuc-65xn1tnEhglr-445" value="" style="ellipse;whiteSpace=wrap;html=1;aspect=fixed;" parent="1" vertex="1">
          <mxGeometry x="980" y="1555" width="10" height="10" as="geometry" />
        </mxCell>
        <mxCell id="JXdEMuc-65xn1tnEhglr-446" value="" style="ellipse;whiteSpace=wrap;html=1;aspect=fixed;" parent="1" vertex="1">
          <mxGeometry x="970" y="1555" width="10" height="10" as="geometry" />
        </mxCell>
        <mxCell id="JXdEMuc-65xn1tnEhglr-447" value="" style="ellipse;whiteSpace=wrap;html=1;aspect=fixed;" parent="1" vertex="1">
          <mxGeometry x="959" y="1555" width="10" height="10" as="geometry" />
        </mxCell>
        <mxCell id="JXdEMuc-65xn1tnEhglr-448" value="" style="ellipse;whiteSpace=wrap;html=1;aspect=fixed;" parent="1" vertex="1">
          <mxGeometry x="949" y="1555" width="10" height="10" as="geometry" />
        </mxCell>
        <mxCell id="JXdEMuc-65xn1tnEhglr-449" value="" style="ellipse;whiteSpace=wrap;html=1;aspect=fixed;" parent="1" vertex="1">
          <mxGeometry x="939" y="1555" width="10" height="10" as="geometry" />
        </mxCell>
        <mxCell id="JXdEMuc-65xn1tnEhglr-450" value="" style="ellipse;whiteSpace=wrap;html=1;aspect=fixed;" parent="1" vertex="1">
          <mxGeometry x="930" y="1555" width="10" height="10" as="geometry" />
        </mxCell>
        <mxCell id="JXdEMuc-65xn1tnEhglr-451" value="" style="ellipse;whiteSpace=wrap;html=1;aspect=fixed;" parent="1" vertex="1">
          <mxGeometry x="920" y="1555" width="10" height="10" as="geometry" />
        </mxCell>
        <mxCell id="JXdEMuc-65xn1tnEhglr-452" value="" style="ellipse;whiteSpace=wrap;html=1;aspect=fixed;" parent="1" vertex="1">
          <mxGeometry x="910" y="1555" width="10" height="10" as="geometry" />
        </mxCell>
        <mxCell id="JXdEMuc-65xn1tnEhglr-453" value="" style="ellipse;whiteSpace=wrap;html=1;aspect=fixed;" parent="1" vertex="1">
          <mxGeometry x="900" y="1555" width="10" height="10" as="geometry" />
        </mxCell>
        <mxCell id="JXdEMuc-65xn1tnEhglr-454" value="" style="ellipse;whiteSpace=wrap;html=1;aspect=fixed;" parent="1" vertex="1">
          <mxGeometry x="890" y="1555" width="10" height="10" as="geometry" />
        </mxCell>
        <mxCell id="JXdEMuc-65xn1tnEhglr-455" value="" style="ellipse;whiteSpace=wrap;html=1;aspect=fixed;" parent="1" vertex="1">
          <mxGeometry x="980" y="1515" width="10" height="10" as="geometry" />
        </mxCell>
        <mxCell id="JXdEMuc-65xn1tnEhglr-456" value="" style="ellipse;whiteSpace=wrap;html=1;aspect=fixed;" parent="1" vertex="1">
          <mxGeometry x="970" y="1515" width="10" height="10" as="geometry" />
        </mxCell>
        <mxCell id="JXdEMuc-65xn1tnEhglr-457" value="" style="ellipse;whiteSpace=wrap;html=1;aspect=fixed;" parent="1" vertex="1">
          <mxGeometry x="960" y="1515" width="10" height="10" as="geometry" />
        </mxCell>
        <mxCell id="JXdEMuc-65xn1tnEhglr-458" value="" style="ellipse;whiteSpace=wrap;html=1;aspect=fixed;" parent="1" vertex="1">
          <mxGeometry x="950" y="1515" width="10" height="10" as="geometry" />
        </mxCell>
        <mxCell id="JXdEMuc-65xn1tnEhglr-469" value="" style="ellipse;whiteSpace=wrap;html=1;aspect=fixed;" parent="1" vertex="1">
          <mxGeometry x="759" y="1555" width="10" height="10" as="geometry" />
        </mxCell>
        <mxCell id="JXdEMuc-65xn1tnEhglr-470" value="" style="ellipse;whiteSpace=wrap;html=1;aspect=fixed;" parent="1" vertex="1">
          <mxGeometry x="750" y="1515" width="10" height="10" as="geometry" />
        </mxCell>
        <mxCell id="JXdEMuc-65xn1tnEhglr-471" value="" style="ellipse;whiteSpace=wrap;html=1;aspect=fixed;" parent="1" vertex="1">
          <mxGeometry x="740" y="1515" width="10" height="10" as="geometry" />
        </mxCell>
        <mxCell id="JXdEMuc-65xn1tnEhglr-472" value="" style="ellipse;whiteSpace=wrap;html=1;aspect=fixed;" parent="1" vertex="1">
          <mxGeometry x="830" y="1515" width="10" height="10" as="geometry" />
        </mxCell>
        <mxCell id="JXdEMuc-65xn1tnEhglr-473" value="" style="ellipse;whiteSpace=wrap;html=1;aspect=fixed;" parent="1" vertex="1">
          <mxGeometry x="820" y="1515" width="10" height="10" as="geometry" />
        </mxCell>
        <mxCell id="JXdEMuc-65xn1tnEhglr-474" value="" style="ellipse;whiteSpace=wrap;html=1;aspect=fixed;" parent="1" vertex="1">
          <mxGeometry x="1070" y="1555" width="10" height="10" as="geometry" />
        </mxCell>
        <mxCell id="JXdEMuc-65xn1tnEhglr-475" value="" style="ellipse;whiteSpace=wrap;html=1;aspect=fixed;" parent="1" vertex="1">
          <mxGeometry x="1069" y="1515" width="10" height="10" as="geometry" />
        </mxCell>
        <mxCell id="JXdEMuc-65xn1tnEhglr-476" value="" style="ellipse;whiteSpace=wrap;html=1;aspect=fixed;" parent="1" vertex="1">
          <mxGeometry x="1059" y="1515" width="10" height="10" as="geometry" />
        </mxCell>
        <mxCell id="JXdEMuc-65xn1tnEhglr-477" value="" style="ellipse;whiteSpace=wrap;html=1;aspect=fixed;" parent="1" vertex="1">
          <mxGeometry x="1049" y="1515" width="10" height="10" as="geometry" />
        </mxCell>
        <mxCell id="JXdEMuc-65xn1tnEhglr-478" value="" style="ellipse;whiteSpace=wrap;html=1;aspect=fixed;" parent="1" vertex="1">
          <mxGeometry x="1039" y="1515" width="10" height="10" as="geometry" />
        </mxCell>
        <mxCell id="JXdEMuc-65xn1tnEhglr-479" value="" style="ellipse;whiteSpace=wrap;html=1;aspect=fixed;" parent="1" vertex="1">
          <mxGeometry x="1120" y="1515" width="10" height="10" as="geometry" />
        </mxCell>
        <mxCell id="JXdEMuc-65xn1tnEhglr-480" value="" style="ellipse;whiteSpace=wrap;html=1;aspect=fixed;" parent="1" vertex="1">
          <mxGeometry x="1129" y="1515" width="10" height="10" as="geometry" />
        </mxCell>
        <mxCell id="JXdEMuc-65xn1tnEhglr-481" value="" style="ellipse;whiteSpace=wrap;html=1;aspect=fixed;" parent="1" vertex="1">
          <mxGeometry x="749" y="1555" width="10" height="10" as="geometry" />
        </mxCell>
        <mxCell id="JXdEMuc-65xn1tnEhglr-482" value="" style="ellipse;whiteSpace=wrap;html=1;aspect=fixed;" parent="1" vertex="1">
          <mxGeometry x="740" y="1555" width="10" height="10" as="geometry" />
        </mxCell>
        <mxCell id="JXdEMuc-65xn1tnEhglr-483" value="" style="ellipse;whiteSpace=wrap;html=1;aspect=fixed;" parent="1" vertex="1">
          <mxGeometry x="830" y="1555" width="10" height="10" as="geometry" />
        </mxCell>
        <mxCell id="JXdEMuc-65xn1tnEhglr-484" value="" style="ellipse;whiteSpace=wrap;html=1;aspect=fixed;" parent="1" vertex="1">
          <mxGeometry x="820" y="1555" width="10" height="10" as="geometry" />
        </mxCell>
        <mxCell id="JXdEMuc-65xn1tnEhglr-485" value="" style="ellipse;whiteSpace=wrap;html=1;aspect=fixed;" parent="1" vertex="1">
          <mxGeometry x="810" y="1555" width="10" height="10" as="geometry" />
        </mxCell>
        <mxCell id="JXdEMuc-65xn1tnEhglr-486" value="" style="ellipse;whiteSpace=wrap;html=1;aspect=fixed;" parent="1" vertex="1">
          <mxGeometry x="800" y="1555" width="10" height="10" as="geometry" />
        </mxCell>
        <mxCell id="JXdEMuc-65xn1tnEhglr-487" value="" style="ellipse;whiteSpace=wrap;html=1;aspect=fixed;" parent="1" vertex="1">
          <mxGeometry x="789" y="1555" width="10" height="10" as="geometry" />
        </mxCell>
        <mxCell id="JXdEMuc-65xn1tnEhglr-488" value="" style="ellipse;whiteSpace=wrap;html=1;aspect=fixed;" parent="1" vertex="1">
          <mxGeometry x="779" y="1555" width="10" height="10" as="geometry" />
        </mxCell>
        <mxCell id="JXdEMuc-65xn1tnEhglr-489" value="" style="ellipse;whiteSpace=wrap;html=1;aspect=fixed;" parent="1" vertex="1">
          <mxGeometry x="769" y="1555" width="10" height="10" as="geometry" />
        </mxCell>
        <mxCell id="JXdEMuc-65xn1tnEhglr-491" value="" style="rounded=0;whiteSpace=wrap;html=1;fillColor=none;strokeColor=#1A1A1A;" parent="1" vertex="1">
          <mxGeometry x="740" y="1550" width="100" height="20" as="geometry" />
        </mxCell>
        <mxCell id="JXdEMuc-65xn1tnEhglr-494" value="" style="ellipse;whiteSpace=wrap;html=1;aspect=fixed;" parent="1" vertex="1">
          <mxGeometry x="1060" y="1555" width="10" height="10" as="geometry" />
        </mxCell>
        <mxCell id="JXdEMuc-65xn1tnEhglr-495" value="" style="ellipse;whiteSpace=wrap;html=1;aspect=fixed;" parent="1" vertex="1">
          <mxGeometry x="1050" y="1555" width="10" height="10" as="geometry" />
        </mxCell>
        <mxCell id="JXdEMuc-65xn1tnEhglr-496" value="" style="ellipse;whiteSpace=wrap;html=1;aspect=fixed;" parent="1" vertex="1">
          <mxGeometry x="1040" y="1555" width="10" height="10" as="geometry" />
        </mxCell>
        <mxCell id="JXdEMuc-65xn1tnEhglr-497" value="" style="ellipse;whiteSpace=wrap;html=1;aspect=fixed;" parent="1" vertex="1">
          <mxGeometry x="1129" y="1555" width="10" height="10" as="geometry" />
        </mxCell>
        <mxCell id="JXdEMuc-65xn1tnEhglr-498" value="" style="ellipse;whiteSpace=wrap;html=1;aspect=fixed;" parent="1" vertex="1">
          <mxGeometry x="1119" y="1555" width="10" height="10" as="geometry" />
        </mxCell>
        <mxCell id="JXdEMuc-65xn1tnEhglr-499" value="" style="ellipse;whiteSpace=wrap;html=1;aspect=fixed;" parent="1" vertex="1">
          <mxGeometry x="1109" y="1515" width="10" height="10" as="geometry" />
        </mxCell>
        <mxCell id="JXdEMuc-65xn1tnEhglr-500" value="" style="ellipse;whiteSpace=wrap;html=1;aspect=fixed;" parent="1" vertex="1">
          <mxGeometry x="1100" y="1515" width="10" height="10" as="geometry" />
        </mxCell>
        <mxCell id="JXdEMuc-65xn1tnEhglr-501" value="" style="ellipse;whiteSpace=wrap;html=1;aspect=fixed;" parent="1" vertex="1">
          <mxGeometry x="1090" y="1515" width="10" height="10" as="geometry" />
        </mxCell>
        <mxCell id="JXdEMuc-65xn1tnEhglr-502" value="" style="ellipse;whiteSpace=wrap;html=1;aspect=fixed;" parent="1" vertex="1">
          <mxGeometry x="1080" y="1515" width="10" height="10" as="geometry" />
        </mxCell>
        <mxCell id="JXdEMuc-65xn1tnEhglr-503" value="" style="ellipse;whiteSpace=wrap;html=1;aspect=fixed;fillColor=#4C0099;" parent="1" vertex="1">
          <mxGeometry x="891" y="1265" width="10" height="10" as="geometry" />
        </mxCell>
        <mxCell id="JXdEMuc-65xn1tnEhglr-504" value="" style="ellipse;whiteSpace=wrap;html=1;aspect=fixed;" parent="1" vertex="1">
          <mxGeometry x="1109" y="1555" width="10" height="10" as="geometry" />
        </mxCell>
        <mxCell id="JXdEMuc-65xn1tnEhglr-505" value="" style="ellipse;whiteSpace=wrap;html=1;aspect=fixed;" parent="1" vertex="1">
          <mxGeometry x="1099" y="1555" width="10" height="10" as="geometry" />
        </mxCell>
        <mxCell id="JXdEMuc-65xn1tnEhglr-506" value="" style="ellipse;whiteSpace=wrap;html=1;aspect=fixed;" parent="1" vertex="1">
          <mxGeometry x="1089" y="1555" width="10" height="10" as="geometry" />
        </mxCell>
        <mxCell id="JXdEMuc-65xn1tnEhglr-507" value="" style="ellipse;whiteSpace=wrap;html=1;aspect=fixed;" parent="1" vertex="1">
          <mxGeometry x="1080" y="1555" width="10" height="10" as="geometry" />
        </mxCell>
        <mxCell id="JXdEMuc-65xn1tnEhglr-517" value="" style="endArrow=none;html=1;rounded=0;strokeColor=#1A1A1A;strokeWidth=2;fontSize=15;" parent="1" edge="1">
          <mxGeometry width="50" height="50" relative="1" as="geometry">
            <mxPoint x="138" y="400" as="sourcePoint" />
            <mxPoint x="258" y="400" as="targetPoint" />
          </mxGeometry>
        </mxCell>
        <mxCell id="JXdEMuc-65xn1tnEhglr-519" value="" style="endArrow=none;html=1;rounded=0;strokeColor=#1A1A1A;strokeWidth=2;fontSize=15;" parent="1" edge="1">
          <mxGeometry width="50" height="50" relative="1" as="geometry">
            <mxPoint x="140" y="480" as="sourcePoint" />
            <mxPoint x="260" y="480" as="targetPoint" />
          </mxGeometry>
        </mxCell>
        <mxCell id="JXdEMuc-65xn1tnEhglr-520" value="" style="endArrow=none;html=1;rounded=0;strokeColor=#1A1A1A;strokeWidth=2;fontSize=15;" parent="1" edge="1">
          <mxGeometry width="50" height="50" relative="1" as="geometry">
            <mxPoint x="280" y="400" as="sourcePoint" />
            <mxPoint x="400" y="400" as="targetPoint" />
          </mxGeometry>
        </mxCell>
        <mxCell id="JXdEMuc-65xn1tnEhglr-521" value="" style="endArrow=none;html=1;rounded=0;strokeColor=#1A1A1A;strokeWidth=2;fontSize=15;" parent="1" edge="1">
          <mxGeometry width="50" height="50" relative="1" as="geometry">
            <mxPoint x="280" y="480" as="sourcePoint" />
            <mxPoint x="400" y="480" as="targetPoint" />
          </mxGeometry>
        </mxCell>
        <mxCell id="JXdEMuc-65xn1tnEhglr-522" value="" style="endArrow=none;html=1;rounded=0;strokeColor=#1A1A1A;strokeWidth=2;fontSize=15;" parent="1" edge="1">
          <mxGeometry width="50" height="50" relative="1" as="geometry">
            <mxPoint x="420" y="400" as="sourcePoint" />
            <mxPoint x="540" y="400" as="targetPoint" />
          </mxGeometry>
        </mxCell>
        <mxCell id="JXdEMuc-65xn1tnEhglr-523" value="" style="endArrow=none;html=1;rounded=0;strokeColor=#1A1A1A;strokeWidth=2;fontSize=15;" parent="1" edge="1">
          <mxGeometry width="50" height="50" relative="1" as="geometry">
            <mxPoint x="420" y="480" as="sourcePoint" />
            <mxPoint x="540" y="480" as="targetPoint" />
          </mxGeometry>
        </mxCell>
        <mxCell id="JXdEMuc-65xn1tnEhglr-524" value="" style="endArrow=none;html=1;rounded=0;strokeColor=#1A1A1A;strokeWidth=2;fontSize=15;" parent="1" edge="1">
          <mxGeometry width="50" height="50" relative="1" as="geometry">
            <mxPoint x="139" y="400" as="sourcePoint" />
            <mxPoint x="139" y="480" as="targetPoint" />
          </mxGeometry>
        </mxCell>
        <mxCell id="JXdEMuc-65xn1tnEhglr-525" value="" style="endArrow=none;html=1;rounded=0;strokeColor=#1A1A1A;strokeWidth=2;fontSize=15;" parent="1" edge="1">
          <mxGeometry width="50" height="50" relative="1" as="geometry">
            <mxPoint x="259" y="400" as="sourcePoint" />
            <mxPoint x="259" y="480" as="targetPoint" />
          </mxGeometry>
        </mxCell>
        <mxCell id="JXdEMuc-65xn1tnEhglr-526" value="" style="endArrow=none;html=1;rounded=0;strokeColor=#1A1A1A;strokeWidth=2;fontSize=15;" parent="1" edge="1">
          <mxGeometry width="50" height="50" relative="1" as="geometry">
            <mxPoint x="280" y="400" as="sourcePoint" />
            <mxPoint x="280" y="480" as="targetPoint" />
          </mxGeometry>
        </mxCell>
        <mxCell id="JXdEMuc-65xn1tnEhglr-527" value="" style="endArrow=none;html=1;rounded=0;strokeColor=#1A1A1A;strokeWidth=2;fontSize=15;" parent="1" edge="1">
          <mxGeometry width="50" height="50" relative="1" as="geometry">
            <mxPoint x="399" y="400" as="sourcePoint" />
            <mxPoint x="399" y="480" as="targetPoint" />
          </mxGeometry>
        </mxCell>
        <mxCell id="JXdEMuc-65xn1tnEhglr-528" value="" style="endArrow=none;html=1;rounded=0;strokeColor=#1A1A1A;strokeWidth=2;fontSize=15;" parent="1" edge="1">
          <mxGeometry width="50" height="50" relative="1" as="geometry">
            <mxPoint x="420" y="400" as="sourcePoint" />
            <mxPoint x="420" y="480" as="targetPoint" />
          </mxGeometry>
        </mxCell>
        <mxCell id="JXdEMuc-65xn1tnEhglr-529" value="" style="endArrow=none;html=1;rounded=0;strokeColor=#1A1A1A;strokeWidth=2;fontSize=15;" parent="1" edge="1">
          <mxGeometry width="50" height="50" relative="1" as="geometry">
            <mxPoint x="539" y="400" as="sourcePoint" />
            <mxPoint x="539" y="480" as="targetPoint" />
          </mxGeometry>
        </mxCell>
        <mxCell id="JXdEMuc-65xn1tnEhglr-530" value="&lt;font style=&quot;font-size: 12px;&quot;&gt;$$Postive~Pair$$&lt;/font&gt;" style="text;html=1;align=center;verticalAlign=middle;resizable=0;points=[];autosize=1;strokeColor=none;fillColor=none;fontSize=15;" parent="1" vertex="1">
          <mxGeometry x="1030" y="1470" width="120" height="30" as="geometry" />
        </mxCell>
        <mxCell id="JXdEMuc-65xn1tnEhglr-531" value="&lt;font style=&quot;font-size: 12px;&quot;&gt;$$Negative~Pair$$&lt;/font&gt;" style="text;html=1;align=center;verticalAlign=middle;resizable=0;points=[];autosize=1;strokeColor=none;fillColor=none;fontSize=15;" parent="1" vertex="1">
          <mxGeometry x="879" y="1470" width="130" height="30" as="geometry" />
        </mxCell>
        <mxCell id="JXdEMuc-65xn1tnEhglr-532" value="&lt;font style=&quot;font-size: 12px;&quot;&gt;$$Negative~Pair$$&lt;/font&gt;" style="text;html=1;align=center;verticalAlign=middle;resizable=0;points=[];autosize=1;strokeColor=none;fillColor=none;fontSize=15;" parent="1" vertex="1">
          <mxGeometry x="725" y="1470" width="130" height="30" as="geometry" />
        </mxCell>
        <mxCell id="JXdEMuc-65xn1tnEhglr-535" value="$$m$$" style="text;html=1;align=center;verticalAlign=middle;resizable=0;points=[];autosize=1;strokeColor=none;fillColor=none;fontSize=12;" parent="1" vertex="1">
          <mxGeometry x="1060" y="1559" width="60" height="30" as="geometry" />
        </mxCell>
        <mxCell id="JXdEMuc-65xn1tnEhglr-536" value="$$p$$" style="text;html=1;align=center;verticalAlign=middle;resizable=0;points=[];autosize=1;strokeColor=none;fillColor=none;fontSize=12;" parent="1" vertex="1">
          <mxGeometry x="1060" y="1520" width="60" height="30" as="geometry" />
        </mxCell>
        <mxCell id="JXdEMuc-65xn1tnEhglr-537" value="$$m$$" style="text;html=1;align=center;verticalAlign=middle;resizable=0;points=[];autosize=1;strokeColor=none;fillColor=none;fontSize=12;" parent="1" vertex="1">
          <mxGeometry x="760" y="1559" width="60" height="30" as="geometry" />
        </mxCell>
        <mxCell id="JXdEMuc-65xn1tnEhglr-538" value="$$o$$" style="text;html=1;align=center;verticalAlign=middle;resizable=0;points=[];autosize=1;strokeColor=none;fillColor=none;fontSize=12;" parent="1" vertex="1">
          <mxGeometry x="759" y="1520" width="60" height="30" as="geometry" />
        </mxCell>
        <mxCell id="JXdEMuc-65xn1tnEhglr-541" value="$$n$$" style="text;html=1;align=center;verticalAlign=middle;resizable=0;points=[];autosize=1;strokeColor=none;fillColor=none;fontSize=12;" parent="1" vertex="1">
          <mxGeometry x="912" y="1520" width="60" height="30" as="geometry" />
        </mxCell>
        <mxCell id="JXdEMuc-65xn1tnEhglr-542" value="" style="endArrow=none;dashed=1;html=1;rounded=0;strokeColor=default;strokeWidth=3;" parent="1" edge="1">
          <mxGeometry width="50" height="50" relative="1" as="geometry">
            <mxPoint x="703" y="1472" as="sourcePoint" />
            <mxPoint x="1178" y="1472" as="targetPoint" />
          </mxGeometry>
        </mxCell>
        <mxCell id="JXdEMuc-65xn1tnEhglr-543" value="" style="endArrow=none;dashed=1;html=1;rounded=0;strokeColor=default;strokeWidth=3;" parent="1" edge="1">
          <mxGeometry width="50" height="50" relative="1" as="geometry">
            <mxPoint x="700" y="1594" as="sourcePoint" />
            <mxPoint x="1175" y="1594" as="targetPoint" />
          </mxGeometry>
        </mxCell>
        <mxCell id="JXdEMuc-65xn1tnEhglr-544" value="" style="endArrow=none;dashed=1;html=1;rounded=0;strokeColor=default;strokeWidth=3;" parent="1" edge="1">
          <mxGeometry width="50" height="50" relative="1" as="geometry">
            <mxPoint x="699.5" y="1592" as="sourcePoint" />
            <mxPoint x="699" y="1472" as="targetPoint" />
          </mxGeometry>
        </mxCell>
        <mxCell id="JXdEMuc-65xn1tnEhglr-545" value="" style="endArrow=none;dashed=1;html=1;rounded=0;strokeColor=default;strokeWidth=3;" parent="1" edge="1">
          <mxGeometry width="50" height="50" relative="1" as="geometry">
            <mxPoint x="1179.5" y="1593" as="sourcePoint" />
            <mxPoint x="1179" y="1473" as="targetPoint" />
          </mxGeometry>
        </mxCell>
        <mxCell id="JXdEMuc-65xn1tnEhglr-547" value="" style="endArrow=classic;html=1;rounded=0;strokeWidth=2;" parent="1" edge="1">
          <mxGeometry width="50" height="50" relative="1" as="geometry">
            <mxPoint x="341" y="363" as="sourcePoint" />
            <mxPoint x="341" y="333" as="targetPoint" />
            <Array as="points">
              <mxPoint x="341" y="375" />
              <mxPoint x="341" y="333" />
            </Array>
          </mxGeometry>
        </mxCell>
        <mxCell id="JXdEMuc-65xn1tnEhglr-553" value="" style="endArrow=classic;html=1;rounded=0;strokeWidth=2;" parent="1" edge="1">
          <mxGeometry width="50" height="50" relative="1" as="geometry">
            <mxPoint x="485" y="363" as="sourcePoint" />
            <mxPoint x="485" y="333" as="targetPoint" />
            <Array as="points">
              <mxPoint x="485" y="375" />
              <mxPoint x="485" y="333" />
            </Array>
          </mxGeometry>
        </mxCell>
        <mxCell id="JXdEMuc-65xn1tnEhglr-554" value="" style="endArrow=classic;html=1;rounded=0;strokeWidth=2;" parent="1" edge="1">
          <mxGeometry width="50" height="50" relative="1" as="geometry">
            <mxPoint x="197" y="364" as="sourcePoint" />
            <mxPoint x="197" y="334" as="targetPoint" />
            <Array as="points">
              <mxPoint x="197" y="376" />
              <mxPoint x="197" y="334" />
            </Array>
          </mxGeometry>
        </mxCell>
        <mxCell id="JXdEMuc-65xn1tnEhglr-555" value="&lt;font style=&quot;font-size: 15px;&quot;&gt;$$Tailored~Local~Transformer$$&lt;/font&gt;" style="rounded=1;whiteSpace=wrap;html=1;fillStyle=auto;strokeColor=#1A1A1A;strokeWidth=2;fillColor=none;gradientColor=none;" parent="1" vertex="1">
          <mxGeometry x="700" y="1359" width="230" height="40" as="geometry" />
        </mxCell>
        <mxCell id="JXdEMuc-65xn1tnEhglr-558" value="" style="endArrow=classic;html=1;rounded=0;strokeWidth=2;" parent="1" edge="1">
          <mxGeometry width="50" height="50" relative="1" as="geometry">
            <mxPoint x="340" y="178" as="sourcePoint" />
            <mxPoint x="340" y="148" as="targetPoint" />
            <Array as="points">
              <mxPoint x="340" y="148" />
            </Array>
          </mxGeometry>
        </mxCell>
        <mxCell id="JXdEMuc-65xn1tnEhglr-563" value="" style="endArrow=none;html=1;rounded=0;strokeColor=default;strokeWidth=2;" parent="1" edge="1">
          <mxGeometry width="50" height="50" relative="1" as="geometry">
            <mxPoint x="341" y="290" as="sourcePoint" />
            <mxPoint x="341" y="256" as="targetPoint" />
          </mxGeometry>
        </mxCell>
        <mxCell id="JXdEMuc-65xn1tnEhglr-564" value="" style="endArrow=none;html=1;rounded=0;strokeColor=default;strokeWidth=2;" parent="1" edge="1">
          <mxGeometry width="50" height="50" relative="1" as="geometry">
            <mxPoint x="341" y="233" as="sourcePoint" />
            <mxPoint x="341" y="199" as="targetPoint" />
          </mxGeometry>
        </mxCell>
        <mxCell id="JXdEMuc-65xn1tnEhglr-566" value="" style="ellipse;whiteSpace=wrap;html=1;aspect=fixed;fillColor=#7F00FF;" parent="1" vertex="1">
          <mxGeometry x="900" y="1265" width="10" height="10" as="geometry" />
        </mxCell>
        <mxCell id="JXdEMuc-65xn1tnEhglr-567" value="" style="ellipse;whiteSpace=wrap;html=1;aspect=fixed;fillColor=#E5CCFF;" parent="1" vertex="1">
          <mxGeometry x="910" y="1265" width="10" height="10" as="geometry" />
        </mxCell>
        <mxCell id="JXdEMuc-65xn1tnEhglr-568" value="" style="ellipse;whiteSpace=wrap;html=1;aspect=fixed;fillColor=#E5CCFF;" parent="1" vertex="1">
          <mxGeometry x="920" y="1265" width="10" height="10" as="geometry" />
        </mxCell>
        <mxCell id="JXdEMuc-65xn1tnEhglr-569" value="" style="ellipse;whiteSpace=wrap;html=1;aspect=fixed;fillColor=#B266FF;" parent="1" vertex="1">
          <mxGeometry x="940" y="1265" width="10" height="10" as="geometry" />
        </mxCell>
        <mxCell id="JXdEMuc-65xn1tnEhglr-572" value="$$Attention~a$$" style="text;html=1;align=center;verticalAlign=middle;resizable=0;points=[];autosize=1;strokeColor=none;fillColor=none;fontSize=12;" parent="1" vertex="1">
          <mxGeometry x="290" y="70" width="110" height="30" as="geometry" />
        </mxCell>
        <mxCell id="JXdEMuc-65xn1tnEhglr-575" value="" style="endArrow=none;html=1;rounded=0;strokeColor=#1A1A1A;strokeWidth=2;fontSize=12;startArrow=none;" parent="1" source="JXdEMuc-65xn1tnEhglr-540" edge="1">
          <mxGeometry width="50" height="50" relative="1" as="geometry">
            <mxPoint x="641" y="580" as="sourcePoint" />
            <mxPoint x="640.5" y="137.5" as="targetPoint" />
          </mxGeometry>
        </mxCell>
        <mxCell id="JXdEMuc-65xn1tnEhglr-576" value="" style="endArrow=none;html=1;rounded=0;strokeColor=#1A1A1A;strokeWidth=2;fontSize=12;" parent="1" edge="1">
          <mxGeometry width="50" height="50" relative="1" as="geometry">
            <mxPoint x="42" y="137.5" as="sourcePoint" />
            <mxPoint x="40" y="580" as="targetPoint" />
          </mxGeometry>
        </mxCell>
        <mxCell id="JXdEMuc-65xn1tnEhglr-577" value="" style="endArrow=none;html=1;rounded=0;strokeColor=#1A1A1A;strokeWidth=2;fontSize=12;" parent="1" edge="1">
          <mxGeometry width="50" height="50" relative="1" as="geometry">
            <mxPoint x="50" y="524" as="sourcePoint" />
            <mxPoint x="110" y="524" as="targetPoint" />
          </mxGeometry>
        </mxCell>
        <mxCell id="JXdEMuc-65xn1tnEhglr-578" value="" style="endArrow=none;html=1;rounded=0;strokeColor=#1A1A1A;strokeWidth=2;fontSize=12;" parent="1" edge="1">
          <mxGeometry width="50" height="50" relative="1" as="geometry">
            <mxPoint x="582" y="577.5" as="sourcePoint" />
            <mxPoint x="642" y="577.5" as="targetPoint" />
          </mxGeometry>
        </mxCell>
        <mxCell id="JXdEMuc-65xn1tnEhglr-579" value="" style="endArrow=classic;html=1;rounded=0;strokeColor=#1A1A1A;strokeWidth=2;fontSize=12;" parent="1" edge="1">
          <mxGeometry width="50" height="50" relative="1" as="geometry">
            <mxPoint x="42" y="138" as="sourcePoint" />
            <mxPoint x="202" y="138" as="targetPoint" />
          </mxGeometry>
        </mxCell>
        <mxCell id="JXdEMuc-65xn1tnEhglr-580" value="" style="endArrow=classic;html=1;rounded=0;strokeColor=#1A1A1A;strokeWidth=2;fontSize=12;" parent="1" edge="1">
          <mxGeometry width="50" height="50" relative="1" as="geometry">
            <mxPoint x="640" y="138.5" as="sourcePoint" />
            <mxPoint x="480" y="139" as="targetPoint" />
          </mxGeometry>
        </mxCell>
        <mxCell id="JXdEMuc-65xn1tnEhglr-581" value="" style="ellipse;whiteSpace=wrap;html=1;aspect=fixed;fillStyle=auto;strokeColor=#1A1A1A;strokeWidth=2;fontSize=12;fillColor=#1A1A1A;gradientColor=none;" parent="1" vertex="1">
          <mxGeometry x="204" y="124" width="27" height="27" as="geometry" />
        </mxCell>
        <mxCell id="JXdEMuc-65xn1tnEhglr-582" value="" style="ellipse;whiteSpace=wrap;html=1;aspect=fixed;fillStyle=auto;strokeColor=#1A1A1A;strokeWidth=2;fontSize=12;fillColor=#FFFFFF;gradientColor=none;" parent="1" vertex="1">
          <mxGeometry x="454" y="124" width="27" height="27" as="geometry" />
        </mxCell>
        <mxCell id="JXdEMuc-65xn1tnEhglr-588" value="" style="shape=umlDestroy;whiteSpace=wrap;html=1;strokeWidth=3;fillStyle=auto;strokeColor=#1A1A1A;fontSize=12;fillColor=#FFFFFF;gradientColor=none;" parent="1" vertex="1">
          <mxGeometry x="458" y="127.5" width="19" height="20" as="geometry" />
        </mxCell>
        <mxCell id="JXdEMuc-65xn1tnEhglr-589" value="" style="shape=umlDestroy;whiteSpace=wrap;html=1;strokeWidth=3;fillStyle=auto;strokeColor=#FFFFFF;fontSize=12;fillColor=#FFFFFF;gradientColor=none;" parent="1" vertex="1">
          <mxGeometry x="208" y="127.5" width="19" height="20" as="geometry" />
        </mxCell>
        <mxCell id="JXdEMuc-65xn1tnEhglr-590" value="" style="endArrow=classic;html=1;rounded=0;strokeColor=#1A1A1A;strokeWidth=2;fontSize=12;entryX=1;entryY=0.5;entryDx=0;entryDy=0;" parent="1" target="JXdEMuc-65xn1tnEhglr-581" edge="1">
          <mxGeometry width="50" height="50" relative="1" as="geometry">
            <mxPoint x="280" y="160" as="sourcePoint" />
            <mxPoint x="238.5" y="138.5" as="targetPoint" />
          </mxGeometry>
        </mxCell>
        <mxCell id="JXdEMuc-65xn1tnEhglr-591" value="" style="endArrow=classic;html=1;rounded=0;strokeColor=#1A1A1A;strokeWidth=2;fontSize=12;" parent="1" edge="1">
          <mxGeometry width="50" height="50" relative="1" as="geometry">
            <mxPoint x="438" y="200" as="sourcePoint" />
            <mxPoint x="508" y="200" as="targetPoint" />
          </mxGeometry>
        </mxCell>
        <mxCell id="JXdEMuc-65xn1tnEhglr-592" value="" style="endArrow=classic;html=1;rounded=0;strokeWidth=2;" parent="1" edge="1">
          <mxGeometry width="50" height="50" relative="1" as="geometry">
            <mxPoint x="217" y="111" as="sourcePoint" />
            <mxPoint x="217" y="81" as="targetPoint" />
            <Array as="points">
              <mxPoint x="217" y="123" />
              <mxPoint x="217" y="81" />
            </Array>
          </mxGeometry>
        </mxCell>
        <mxCell id="JXdEMuc-65xn1tnEhglr-593" value="" style="endArrow=classic;html=1;rounded=0;strokeWidth=2;" parent="1" edge="1">
          <mxGeometry width="50" height="50" relative="1" as="geometry">
            <mxPoint x="467" y="112" as="sourcePoint" />
            <mxPoint x="467" y="82" as="targetPoint" />
            <Array as="points">
              <mxPoint x="467" y="124" />
              <mxPoint x="467" y="82" />
            </Array>
          </mxGeometry>
        </mxCell>
        <mxCell id="JXdEMuc-65xn1tnEhglr-597" value="$$Mask$$" style="text;html=1;align=center;verticalAlign=middle;resizable=0;points=[];autosize=1;strokeColor=none;fillColor=none;fontSize=12;" parent="1" vertex="1">
          <mxGeometry x="453" y="100" width="80" height="30" as="geometry" />
        </mxCell>
        <mxCell id="JXdEMuc-65xn1tnEhglr-598" value="$$Reversely~Mask$$" style="text;html=1;align=center;verticalAlign=middle;resizable=0;points=[];autosize=1;strokeColor=none;fillColor=none;fontSize=12;" parent="1" vertex="1">
          <mxGeometry x="88" y="98" width="140" height="30" as="geometry" />
        </mxCell>
        <mxCell id="JXdEMuc-65xn1tnEhglr-612" value="" style="ellipse;whiteSpace=wrap;html=1;aspect=fixed;" parent="1" vertex="1">
          <mxGeometry x="774" y="1316" width="10" height="10" as="geometry" />
        </mxCell>
        <mxCell id="JXdEMuc-65xn1tnEhglr-613" value="" style="ellipse;whiteSpace=wrap;html=1;aspect=fixed;" parent="1" vertex="1">
          <mxGeometry x="764" y="1316" width="10" height="10" as="geometry" />
        </mxCell>
        <mxCell id="JXdEMuc-65xn1tnEhglr-633" value="" style="ellipse;whiteSpace=wrap;html=1;aspect=fixed;" parent="1" vertex="1">
          <mxGeometry x="1011.5" y="1315" width="10" height="10" as="geometry" />
        </mxCell>
        <mxCell id="JXdEMuc-65xn1tnEhglr-642" value="" style="ellipse;whiteSpace=wrap;html=1;aspect=fixed;strokeWidth=2;fillStyle=auto;strokeColor=#FFFFFF;fontSize=12;fillColor=#FFFFFF;gradientColor=none;" parent="1" vertex="1">
          <mxGeometry x="605" y="-35" width="10" height="10" as="geometry" />
        </mxCell>
        <mxCell id="JXdEMuc-65xn1tnEhglr-655" value="" style="rounded=0;whiteSpace=wrap;html=1;fillColor=none;strokeColor=#1A1A1A;" parent="1" vertex="1">
          <mxGeometry x="764.5" y="1310" width="103" height="20" as="geometry" />
        </mxCell>
        <mxCell id="JXdEMuc-65xn1tnEhglr-657" value="" style="ellipse;whiteSpace=wrap;html=1;aspect=fixed;strokeWidth=1;" parent="1" vertex="1">
          <mxGeometry x="784" y="1316" width="10" height="10" as="geometry" />
        </mxCell>
        <mxCell id="JXdEMuc-65xn1tnEhglr-712" value="" style="endArrow=none;dashed=1;html=1;rounded=0;strokeColor=#1A1A1A;strokeWidth=2;fontSize=12;" parent="1" edge="1">
          <mxGeometry width="50" height="50" relative="1" as="geometry">
            <mxPoint x="151" y="-90" as="sourcePoint" />
            <mxPoint x="280" y="-90" as="targetPoint" />
          </mxGeometry>
        </mxCell>
        <mxCell id="JXdEMuc-65xn1tnEhglr-713" value="" style="endArrow=none;dashed=1;html=1;rounded=0;strokeColor=#1A1A1A;strokeWidth=2;fontSize=12;" parent="1" edge="1">
          <mxGeometry width="50" height="50" relative="1" as="geometry">
            <mxPoint x="150.5" y="70" as="sourcePoint" />
            <mxPoint x="279.5" y="70" as="targetPoint" />
          </mxGeometry>
        </mxCell>
        <mxCell id="JXdEMuc-65xn1tnEhglr-716" value="" style="endArrow=none;dashed=1;html=1;rounded=0;strokeColor=#1A1A1A;strokeWidth=2;fontSize=12;" parent="1" edge="1">
          <mxGeometry width="50" height="50" relative="1" as="geometry">
            <mxPoint x="151" y="70" as="sourcePoint" />
            <mxPoint x="151" y="-90" as="targetPoint" />
          </mxGeometry>
        </mxCell>
        <mxCell id="JXdEMuc-65xn1tnEhglr-717" value="" style="endArrow=none;dashed=1;html=1;rounded=0;strokeColor=#1A1A1A;strokeWidth=2;fontSize=12;" parent="1" edge="1">
          <mxGeometry width="50" height="50" relative="1" as="geometry">
            <mxPoint x="281" y="70" as="sourcePoint" />
            <mxPoint x="281" y="-90" as="targetPoint" />
          </mxGeometry>
        </mxCell>
        <mxCell id="JXdEMuc-65xn1tnEhglr-718" value="" style="endArrow=none;dashed=1;html=1;rounded=0;strokeColor=#1A1A1A;strokeWidth=2;fontSize=12;" parent="1" edge="1">
          <mxGeometry width="50" height="50" relative="1" as="geometry">
            <mxPoint x="399" y="70" as="sourcePoint" />
            <mxPoint x="399" y="-90" as="targetPoint" />
          </mxGeometry>
        </mxCell>
        <mxCell id="JXdEMuc-65xn1tnEhglr-720" value="" style="endArrow=none;html=1;rounded=0;strokeColor=#1A1A1A;strokeWidth=2;fontSize=12;" parent="1" edge="1">
          <mxGeometry width="50" height="50" relative="1" as="geometry">
            <mxPoint x="280" y="50" as="sourcePoint" />
            <mxPoint x="400" y="50" as="targetPoint" />
          </mxGeometry>
        </mxCell>
        <mxCell id="JXdEMuc-65xn1tnEhglr-721" value="" style="endArrow=none;html=1;rounded=0;strokeColor=#1A1A1A;strokeWidth=2;fontSize=12;" parent="1" edge="1">
          <mxGeometry width="50" height="50" relative="1" as="geometry">
            <mxPoint x="280" y="12" as="sourcePoint" />
            <mxPoint x="400" y="12" as="targetPoint" />
          </mxGeometry>
        </mxCell>
        <mxCell id="JXdEMuc-65xn1tnEhglr-722" value="" style="endArrow=none;html=1;rounded=0;strokeColor=#1A1A1A;strokeWidth=2;fontSize=12;" parent="1" edge="1">
          <mxGeometry width="50" height="50" relative="1" as="geometry">
            <mxPoint x="280" y="-29" as="sourcePoint" />
            <mxPoint x="400" y="-29" as="targetPoint" />
          </mxGeometry>
        </mxCell>
        <mxCell id="JXdEMuc-65xn1tnEhglr-723" value="" style="endArrow=none;html=1;rounded=0;strokeColor=#1A1A1A;strokeWidth=2;fontSize=12;" parent="1" edge="1">
          <mxGeometry width="50" height="50" relative="1" as="geometry">
            <mxPoint x="280" y="-72" as="sourcePoint" />
            <mxPoint x="400" y="-72" as="targetPoint" />
          </mxGeometry>
        </mxCell>
        <mxCell id="JXdEMuc-65xn1tnEhglr-724" value="" style="endArrow=classic;html=1;rounded=0;strokeColor=#1A1A1A;strokeWidth=2;fontSize=12;" parent="1" edge="1">
          <mxGeometry width="50" height="50" relative="1" as="geometry">
            <mxPoint x="340" y="50" as="sourcePoint" />
            <mxPoint x="340" y="-140" as="targetPoint" />
          </mxGeometry>
        </mxCell>
        <mxCell id="JXdEMuc-65xn1tnEhglr-725" value="&lt;font style=&quot;font-size: 15px;&quot;&gt;$$Quadruplet~Multi-task-Based~Loss$$&lt;/font&gt;" style="rounded=1;whiteSpace=wrap;html=1;fillStyle=auto;strokeColor=#1A1A1A;strokeWidth=2;fillColor=none;gradientColor=none;" parent="1" vertex="1">
          <mxGeometry x="747" y="1120" width="390" height="40" as="geometry" />
        </mxCell>
        <mxCell id="JXdEMuc-65xn1tnEhglr-726" value="" style="endArrow=classic;html=1;rounded=0;strokeWidth=2;" parent="1" edge="1">
          <mxGeometry width="50" height="50" relative="1" as="geometry">
            <mxPoint x="343" y="890" as="sourcePoint" />
            <mxPoint x="342.96511627906966" y="868" as="targetPoint" />
            <Array as="points">
              <mxPoint x="343" y="908" />
              <mxPoint x="343" y="890" />
              <mxPoint x="343" y="874" />
            </Array>
          </mxGeometry>
        </mxCell>
        <mxCell id="JXdEMuc-65xn1tnEhglr-728" value="" style="rounded=0;whiteSpace=wrap;html=1;fillStyle=auto;strokeColor=#1A1A1A;strokeWidth=2;fontSize=12;fillColor=none;gradientColor=none;" parent="1" vertex="1">
          <mxGeometry x="754" y="-340" width="760" height="1020" as="geometry" />
        </mxCell>
        <mxCell id="JXdEMuc-65xn1tnEhglr-729" value="" style="endArrow=classic;html=1;rounded=0;strokeWidth=2;" parent="1" edge="1">
          <mxGeometry width="50" height="50" relative="1" as="geometry">
            <mxPoint x="340" y="-218" as="sourcePoint" />
            <mxPoint x="339.96511627906966" y="-240" as="targetPoint" />
            <Array as="points">
              <mxPoint x="340" y="-200" />
              <mxPoint x="340" y="-218" />
              <mxPoint x="340" y="-234" />
            </Array>
          </mxGeometry>
        </mxCell>
        <mxCell id="JXdEMuc-65xn1tnEhglr-730" value="" style="rounded=0;whiteSpace=wrap;html=1;fillColor=none;strokeColor=#1A1A1A;" parent="1" vertex="1">
          <mxGeometry x="911" y="1060" width="60" height="20" as="geometry" />
        </mxCell>
        <mxCell id="JXdEMuc-65xn1tnEhglr-733" value="" style="ellipse;whiteSpace=wrap;html=1;aspect=fixed;strokeColor=#E5CCFF;strokeWidth=2;" parent="1" vertex="1">
          <mxGeometry x="951" y="1065" width="10" height="10" as="geometry" />
        </mxCell>
        <mxCell id="JXdEMuc-65xn1tnEhglr-734" value="" style="ellipse;whiteSpace=wrap;html=1;aspect=fixed;strokeColor=#7F00FF;strokeWidth=2;" parent="1" vertex="1">
          <mxGeometry x="941" y="1065" width="10" height="10" as="geometry" />
        </mxCell>
        <mxCell id="JXdEMuc-65xn1tnEhglr-735" value="" style="ellipse;whiteSpace=wrap;html=1;aspect=fixed;strokeColor=#9933FF;strokeWidth=2;" parent="1" vertex="1">
          <mxGeometry x="961" y="1065" width="10" height="10" as="geometry" />
        </mxCell>
        <mxCell id="JXdEMuc-65xn1tnEhglr-736" value="" style="ellipse;whiteSpace=wrap;html=1;aspect=fixed;strokeColor=#330066;strokeWidth=2;" parent="1" vertex="1">
          <mxGeometry x="921" y="1065" width="10" height="10" as="geometry" />
        </mxCell>
        <mxCell id="JXdEMuc-65xn1tnEhglr-740" value="" style="ellipse;whiteSpace=wrap;html=1;aspect=fixed;" parent="1" vertex="1">
          <mxGeometry x="931" y="1065" width="10" height="10" as="geometry" />
        </mxCell>
        <mxCell id="JXdEMuc-65xn1tnEhglr-741" value="" style="ellipse;whiteSpace=wrap;html=1;aspect=fixed;" parent="1" vertex="1">
          <mxGeometry x="910" y="1065" width="10" height="10" as="geometry" />
        </mxCell>
        <mxCell id="JXdEMuc-65xn1tnEhglr-752" value="" style="ellipse;whiteSpace=wrap;html=1;aspect=fixed;" parent="1" vertex="1">
          <mxGeometry x="710" y="1655" width="10" height="10" as="geometry" />
        </mxCell>
        <mxCell id="JXdEMuc-65xn1tnEhglr-540" value="$$o$$" style="text;html=1;align=center;verticalAlign=middle;resizable=0;points=[];autosize=1;strokeColor=none;fillColor=none;fontSize=12;" parent="1" vertex="1">
          <mxGeometry x="650" y="374" width="60" height="30" as="geometry" />
        </mxCell>
        <mxCell id="JXdEMuc-65xn1tnEhglr-753" value="" style="endArrow=none;html=1;rounded=0;strokeColor=#1A1A1A;strokeWidth=2;fontSize=12;" parent="1" target="JXdEMuc-65xn1tnEhglr-540" edge="1">
          <mxGeometry width="50" height="50" relative="1" as="geometry">
            <mxPoint x="641" y="580" as="sourcePoint" />
            <mxPoint x="640.5" y="137.5" as="targetPoint" />
          </mxGeometry>
        </mxCell>
        <mxCell id="JXdEMuc-65xn1tnEhglr-754" value="" style="rounded=0;whiteSpace=wrap;html=1;fillStyle=auto;strokeColor=#1A1A1A;strokeWidth=2;fontSize=12;fillColor=none;gradientColor=none;" parent="1" vertex="1">
          <mxGeometry x="1029" y="1500" width="120" height="80" as="geometry" />
        </mxCell>
        <mxCell id="JXdEMuc-65xn1tnEhglr-755" value="" style="rounded=0;whiteSpace=wrap;html=1;fillStyle=auto;strokeColor=#1A1A1A;strokeWidth=2;fontSize=12;fillColor=none;gradientColor=none;" parent="1" vertex="1">
          <mxGeometry x="879" y="1500" width="120" height="80" as="geometry" />
        </mxCell>
        <mxCell id="JXdEMuc-65xn1tnEhglr-756" value="" style="rounded=0;whiteSpace=wrap;html=1;fillStyle=auto;strokeColor=#1A1A1A;strokeWidth=2;fontSize=12;fillColor=none;gradientColor=none;" parent="1" vertex="1">
          <mxGeometry x="729" y="1500" width="120" height="80" as="geometry" />
        </mxCell>
        <mxCell id="JXdEMuc-65xn1tnEhglr-757" value="$$o$$" style="text;html=1;align=center;verticalAlign=middle;resizable=0;points=[];autosize=1;strokeColor=none;fillColor=none;fontSize=12;" parent="1" vertex="1">
          <mxGeometry x="910" y="1559" width="60" height="30" as="geometry" />
        </mxCell>
        <mxCell id="JXdEMuc-65xn1tnEhglr-759" value="" style="ellipse;whiteSpace=wrap;html=1;aspect=fixed;" parent="1" vertex="1">
          <mxGeometry x="890" y="1515" width="10" height="10" as="geometry" />
        </mxCell>
        <mxCell id="itrtUBMHIKbK6yxUzyWk-7" value="" style="shape=datastore;whiteSpace=wrap;html=1;fillColor=#e1d5e7;strokeColor=#9673a6;" vertex="1" parent="1">
          <mxGeometry x="862" y="1980" width="60" height="60" as="geometry" />
        </mxCell>
        <mxCell id="itrtUBMHIKbK6yxUzyWk-8" value="" style="shape=datastore;whiteSpace=wrap;html=1;" vertex="1" parent="1">
          <mxGeometry x="961" y="1980" width="59" height="60" as="geometry" />
        </mxCell>
        <mxCell id="itrtUBMHIKbK6yxUzyWk-10" value="&lt;span style=&quot;font-size: 15px;&quot;&gt;$$Tailored~global~Transformer$$&lt;/span&gt;" style="rounded=1;whiteSpace=wrap;html=1;fillStyle=auto;strokeColor=#1A1A1A;strokeWidth=2;fillColor=none;gradientColor=none;" vertex="1" parent="1">
          <mxGeometry x="950" y="1360" width="230" height="40" as="geometry" />
        </mxCell>
        <mxCell id="itrtUBMHIKbK6yxUzyWk-13" value="" style="endArrow=classic;html=1;rounded=0;strokeColor=#B5739D;strokeWidth=2;" edge="1" parent="1">
          <mxGeometry width="50" height="50" relative="1" as="geometry">
            <mxPoint x="759" y="1510" as="sourcePoint" />
            <mxPoint x="759" y="1400" as="targetPoint" />
          </mxGeometry>
        </mxCell>
        <mxCell id="itrtUBMHIKbK6yxUzyWk-15" value="" style="endArrow=classic;html=1;rounded=0;strokeColor=#B5739D;strokeWidth=2;" edge="1" parent="1">
          <mxGeometry width="50" height="50" relative="1" as="geometry">
            <mxPoint x="773" y="1549" as="sourcePoint" />
            <mxPoint x="760" y="1401" as="targetPoint" />
          </mxGeometry>
        </mxCell>
        <mxCell id="itrtUBMHIKbK6yxUzyWk-16" value="" style="endArrow=classic;html=1;rounded=0;strokeColor=#B5739D;strokeWidth=2;" edge="1" parent="1">
          <mxGeometry width="50" height="50" relative="1" as="geometry">
            <mxPoint x="916" y="1508" as="sourcePoint" />
            <mxPoint x="760" y="1400" as="targetPoint" />
          </mxGeometry>
        </mxCell>
        <mxCell id="itrtUBMHIKbK6yxUzyWk-17" value="" style="endArrow=classic;html=1;rounded=0;strokeColor=#004C99;strokeWidth=2;" edge="1" parent="1">
          <mxGeometry width="50" height="50" relative="1" as="geometry">
            <mxPoint x="760" y="1510" as="sourcePoint" />
            <mxPoint x="798" y="1400" as="targetPoint" />
          </mxGeometry>
        </mxCell>
        <mxCell id="itrtUBMHIKbK6yxUzyWk-19" value="" style="endArrow=classic;html=1;rounded=0;strokeColor=#004C99;strokeWidth=2;" edge="1" parent="1">
          <mxGeometry width="50" height="50" relative="1" as="geometry">
            <mxPoint x="775" y="1550" as="sourcePoint" />
            <mxPoint x="800" y="1400" as="targetPoint" />
          </mxGeometry>
        </mxCell>
        <mxCell id="itrtUBMHIKbK6yxUzyWk-20" value="" style="endArrow=classic;html=1;rounded=0;strokeColor=#004C99;strokeWidth=2;" edge="1" parent="1">
          <mxGeometry width="50" height="50" relative="1" as="geometry">
            <mxPoint x="1078" y="1510" as="sourcePoint" />
            <mxPoint x="800" y="1402" as="targetPoint" />
          </mxGeometry>
        </mxCell>
        <mxCell id="itrtUBMHIKbK6yxUzyWk-21" value="" style="endArrow=classic;html=1;rounded=0;strokeColor=#663300;strokeWidth=2;" edge="1" parent="1">
          <mxGeometry width="50" height="50" relative="1" as="geometry">
            <mxPoint x="918" y="1511" as="sourcePoint" />
            <mxPoint x="840" y="1400" as="targetPoint" />
          </mxGeometry>
        </mxCell>
        <mxCell id="itrtUBMHIKbK6yxUzyWk-22" value="" style="endArrow=classic;html=1;rounded=0;strokeColor=#663300;strokeWidth=2;" edge="1" parent="1">
          <mxGeometry width="50" height="50" relative="1" as="geometry">
            <mxPoint x="760" y="1510" as="sourcePoint" />
            <mxPoint x="840" y="1400" as="targetPoint" />
          </mxGeometry>
        </mxCell>
        <mxCell id="itrtUBMHIKbK6yxUzyWk-23" value="" style="endArrow=classic;html=1;rounded=0;strokeColor=#663300;strokeWidth=2;" edge="1" parent="1">
          <mxGeometry width="50" height="50" relative="1" as="geometry">
            <mxPoint x="1081" y="1511" as="sourcePoint" />
            <mxPoint x="840" y="1400" as="targetPoint" />
          </mxGeometry>
        </mxCell>
        <mxCell id="itrtUBMHIKbK6yxUzyWk-24" value="" style="endArrow=classic;html=1;rounded=0;strokeColor=#67AB9F;strokeWidth=2;" edge="1" parent="1">
          <mxGeometry width="50" height="50" relative="1" as="geometry">
            <mxPoint x="777.0000000000005" y="1549" as="sourcePoint" />
            <mxPoint x="880" y="1400" as="targetPoint" />
          </mxGeometry>
        </mxCell>
        <mxCell id="itrtUBMHIKbK6yxUzyWk-25" value="" style="endArrow=classic;html=1;rounded=0;strokeColor=#67AB9F;strokeWidth=2;" edge="1" parent="1">
          <mxGeometry width="50" height="50" relative="1" as="geometry">
            <mxPoint x="1080" y="1510" as="sourcePoint" />
            <mxPoint x="879.0000000000005" y="1399" as="targetPoint" />
          </mxGeometry>
        </mxCell>
        <mxCell id="itrtUBMHIKbK6yxUzyWk-26" value="" style="endArrow=classic;html=1;rounded=0;strokeColor=#67AB9F;strokeWidth=2;" edge="1" parent="1">
          <mxGeometry width="50" height="50" relative="1" as="geometry">
            <mxPoint x="918" y="1510" as="sourcePoint" />
            <mxPoint x="877.0000000000005" y="1399" as="targetPoint" />
          </mxGeometry>
        </mxCell>
        <mxCell id="itrtUBMHIKbK6yxUzyWk-27" value="" style="endArrow=classic;html=1;rounded=0;strokeColor=#000033;strokeWidth=2;" edge="1" parent="1">
          <mxGeometry width="50" height="50" relative="1" as="geometry">
            <mxPoint x="957.0000000000005" y="1550" as="sourcePoint" />
            <mxPoint x="1060.0000000000005" y="1401" as="targetPoint" />
          </mxGeometry>
        </mxCell>
        <mxCell id="itrtUBMHIKbK6yxUzyWk-28" value="" style="endArrow=classic;html=1;rounded=0;strokeColor=#000033;strokeWidth=2;" edge="1" parent="1">
          <mxGeometry width="50" height="50" relative="1" as="geometry">
            <mxPoint x="918.0000000000005" y="1510" as="sourcePoint" />
            <mxPoint x="1060" y="1400" as="targetPoint" />
          </mxGeometry>
        </mxCell>
        <mxCell id="itrtUBMHIKbK6yxUzyWk-29" value="" style="endArrow=classic;html=1;rounded=0;strokeColor=#000033;strokeWidth=2;" edge="1" parent="1">
          <mxGeometry width="50" height="50" relative="1" as="geometry">
            <mxPoint x="1080.0000000000005" y="1511" as="sourcePoint" />
            <mxPoint x="1060" y="1400" as="targetPoint" />
          </mxGeometry>
        </mxCell>
        <mxCell id="itrtUBMHIKbK6yxUzyWk-30" value="" style="endArrow=classic;html=1;rounded=0;strokeColor=#000033;strokeWidth=2;" edge="1" parent="1">
          <mxGeometry width="50" height="50" relative="1" as="geometry">
            <mxPoint x="1119.0000000000005" y="1549" as="sourcePoint" />
            <mxPoint x="1060" y="1400" as="targetPoint" />
          </mxGeometry>
        </mxCell>
        <mxCell id="itrtUBMHIKbK6yxUzyWk-34" value="" style="ellipse;whiteSpace=wrap;html=1;aspect=fixed;strokeWidth=1;" vertex="1" parent="1">
          <mxGeometry x="794" y="1316" width="10" height="10" as="geometry" />
        </mxCell>
        <mxCell id="itrtUBMHIKbK6yxUzyWk-35" value="" style="ellipse;whiteSpace=wrap;html=1;aspect=fixed;strokeWidth=1;" vertex="1" parent="1">
          <mxGeometry x="804" y="1316" width="10" height="10" as="geometry" />
        </mxCell>
        <mxCell id="itrtUBMHIKbK6yxUzyWk-36" value="" style="ellipse;whiteSpace=wrap;html=1;aspect=fixed;strokeWidth=1;" vertex="1" parent="1">
          <mxGeometry x="814" y="1316" width="10" height="10" as="geometry" />
        </mxCell>
        <mxCell id="itrtUBMHIKbK6yxUzyWk-37" value="" style="ellipse;whiteSpace=wrap;html=1;aspect=fixed;strokeWidth=1;" vertex="1" parent="1">
          <mxGeometry x="824" y="1316" width="10" height="10" as="geometry" />
        </mxCell>
        <mxCell id="itrtUBMHIKbK6yxUzyWk-38" value="" style="ellipse;whiteSpace=wrap;html=1;aspect=fixed;strokeWidth=1;" vertex="1" parent="1">
          <mxGeometry x="834" y="1316" width="10" height="10" as="geometry" />
        </mxCell>
        <mxCell id="itrtUBMHIKbK6yxUzyWk-39" value="" style="ellipse;whiteSpace=wrap;html=1;aspect=fixed;strokeWidth=1;" vertex="1" parent="1">
          <mxGeometry x="844" y="1316" width="10" height="10" as="geometry" />
        </mxCell>
        <mxCell id="itrtUBMHIKbK6yxUzyWk-40" value="" style="ellipse;whiteSpace=wrap;html=1;aspect=fixed;strokeWidth=1;" vertex="1" parent="1">
          <mxGeometry x="854" y="1316" width="10" height="10" as="geometry" />
        </mxCell>
        <mxCell id="itrtUBMHIKbK6yxUzyWk-41" value="" style="rounded=0;whiteSpace=wrap;html=1;fillColor=none;strokeColor=#1A1A1A;" vertex="1" parent="1">
          <mxGeometry x="1010" y="1310" width="103" height="20" as="geometry" />
        </mxCell>
        <mxCell id="itrtUBMHIKbK6yxUzyWk-42" value="" style="ellipse;whiteSpace=wrap;html=1;aspect=fixed;" vertex="1" parent="1">
          <mxGeometry x="1021.5" y="1315" width="10" height="10" as="geometry" />
        </mxCell>
        <mxCell id="itrtUBMHIKbK6yxUzyWk-43" value="" style="ellipse;whiteSpace=wrap;html=1;aspect=fixed;" vertex="1" parent="1">
          <mxGeometry x="1031.5" y="1315" width="10" height="10" as="geometry" />
        </mxCell>
        <mxCell id="itrtUBMHIKbK6yxUzyWk-44" value="" style="ellipse;whiteSpace=wrap;html=1;aspect=fixed;" vertex="1" parent="1">
          <mxGeometry x="1041.5" y="1315" width="10" height="10" as="geometry" />
        </mxCell>
        <mxCell id="itrtUBMHIKbK6yxUzyWk-45" value="" style="ellipse;whiteSpace=wrap;html=1;aspect=fixed;" vertex="1" parent="1">
          <mxGeometry x="1051.5" y="1315" width="10" height="10" as="geometry" />
        </mxCell>
        <mxCell id="itrtUBMHIKbK6yxUzyWk-46" value="" style="ellipse;whiteSpace=wrap;html=1;aspect=fixed;" vertex="1" parent="1">
          <mxGeometry x="1061.5" y="1315" width="10" height="10" as="geometry" />
        </mxCell>
        <mxCell id="itrtUBMHIKbK6yxUzyWk-47" value="" style="ellipse;whiteSpace=wrap;html=1;aspect=fixed;" vertex="1" parent="1">
          <mxGeometry x="1071.5" y="1315" width="10" height="10" as="geometry" />
        </mxCell>
        <mxCell id="itrtUBMHIKbK6yxUzyWk-48" value="" style="ellipse;whiteSpace=wrap;html=1;aspect=fixed;" vertex="1" parent="1">
          <mxGeometry x="1081.5" y="1315" width="10" height="10" as="geometry" />
        </mxCell>
        <mxCell id="itrtUBMHIKbK6yxUzyWk-49" value="" style="ellipse;whiteSpace=wrap;html=1;aspect=fixed;" vertex="1" parent="1">
          <mxGeometry x="1091.5" y="1315" width="10" height="10" as="geometry" />
        </mxCell>
        <mxCell id="itrtUBMHIKbK6yxUzyWk-50" value="" style="ellipse;whiteSpace=wrap;html=1;aspect=fixed;" vertex="1" parent="1">
          <mxGeometry x="1101.5" y="1315" width="10" height="10" as="geometry" />
        </mxCell>
        <mxCell id="itrtUBMHIKbK6yxUzyWk-52" value="$$Local~Attention~Coefficient$$" style="text;html=1;align=center;verticalAlign=middle;resizable=0;points=[];autosize=1;strokeColor=none;fillColor=none;" vertex="1" parent="1">
          <mxGeometry x="712" y="1287" width="200" height="30" as="geometry" />
        </mxCell>
        <mxCell id="itrtUBMHIKbK6yxUzyWk-53" value="$$Global~Attention~Coefficient$$" style="text;html=1;align=center;verticalAlign=middle;resizable=0;points=[];autosize=1;strokeColor=none;fillColor=none;" vertex="1" parent="1">
          <mxGeometry x="966" y="1287" width="200" height="30" as="geometry" />
        </mxCell>
        <mxCell id="itrtUBMHIKbK6yxUzyWk-55" value="$$Attention~Coefficient~a$$" style="text;html=1;align=center;verticalAlign=middle;resizable=0;points=[];autosize=1;strokeColor=none;fillColor=none;" vertex="1" parent="1">
          <mxGeometry x="725" y="1255" width="170" height="30" as="geometry" />
        </mxCell>
        <mxCell id="itrtUBMHIKbK6yxUzyWk-56" value="" style="rounded=0;whiteSpace=wrap;html=1;fillColor=#e1d5e7;strokeColor=#9673a6;" vertex="1" parent="1">
          <mxGeometry x="707.5" y="1205" width="103" height="20" as="geometry" />
        </mxCell>
        <mxCell id="itrtUBMHIKbK6yxUzyWk-59" value="" style="ellipse;whiteSpace=wrap;html=1;aspect=fixed;strokeWidth=2;" vertex="1" parent="1">
          <mxGeometry x="710" y="1210" width="10" height="10" as="geometry" />
        </mxCell>
        <mxCell id="itrtUBMHIKbK6yxUzyWk-60" value="" style="ellipse;whiteSpace=wrap;html=1;aspect=fixed;" vertex="1" parent="1">
          <mxGeometry x="720" y="1210" width="10" height="10" as="geometry" />
        </mxCell>
        <mxCell id="itrtUBMHIKbK6yxUzyWk-61" value="" style="ellipse;whiteSpace=wrap;html=1;aspect=fixed;" vertex="1" parent="1">
          <mxGeometry x="730" y="1210" width="10" height="10" as="geometry" />
        </mxCell>
        <mxCell id="itrtUBMHIKbK6yxUzyWk-62" value="" style="ellipse;whiteSpace=wrap;html=1;aspect=fixed;" vertex="1" parent="1">
          <mxGeometry x="740" y="1210" width="10" height="10" as="geometry" />
        </mxCell>
        <mxCell id="itrtUBMHIKbK6yxUzyWk-63" value="" style="ellipse;whiteSpace=wrap;html=1;aspect=fixed;" vertex="1" parent="1">
          <mxGeometry x="750" y="1210" width="10" height="10" as="geometry" />
        </mxCell>
        <mxCell id="itrtUBMHIKbK6yxUzyWk-64" value="" style="ellipse;whiteSpace=wrap;html=1;aspect=fixed;" vertex="1" parent="1">
          <mxGeometry x="760" y="1210" width="10" height="10" as="geometry" />
        </mxCell>
        <mxCell id="itrtUBMHIKbK6yxUzyWk-65" value="" style="ellipse;whiteSpace=wrap;html=1;aspect=fixed;" vertex="1" parent="1">
          <mxGeometry x="770" y="1210" width="10" height="10" as="geometry" />
        </mxCell>
        <mxCell id="itrtUBMHIKbK6yxUzyWk-66" value="" style="ellipse;whiteSpace=wrap;html=1;aspect=fixed;strokeColor=#4C0099;strokeWidth=2;" vertex="1" parent="1">
          <mxGeometry x="780" y="1210" width="10" height="10" as="geometry" />
        </mxCell>
        <mxCell id="itrtUBMHIKbK6yxUzyWk-67" value="" style="ellipse;whiteSpace=wrap;html=1;aspect=fixed;strokeColor=#663300;strokeWidth=2;" vertex="1" parent="1">
          <mxGeometry x="790" y="1210" width="10" height="10" as="geometry" />
        </mxCell>
        <mxCell id="itrtUBMHIKbK6yxUzyWk-68" value="" style="ellipse;whiteSpace=wrap;html=1;aspect=fixed;" vertex="1" parent="1">
          <mxGeometry x="800" y="1210" width="10" height="10" as="geometry" />
        </mxCell>
        <mxCell id="itrtUBMHIKbK6yxUzyWk-69" value="" style="rounded=0;whiteSpace=wrap;html=1;fillColor=#e1d5e7;strokeColor=#9673a6;" vertex="1" parent="1">
          <mxGeometry x="828" y="1205" width="103" height="20" as="geometry" />
        </mxCell>
        <mxCell id="itrtUBMHIKbK6yxUzyWk-70" value="" style="ellipse;whiteSpace=wrap;html=1;aspect=fixed;strokeColor=#000000;strokeWidth=2;" vertex="1" parent="1">
          <mxGeometry x="830" y="1210" width="10" height="10" as="geometry" />
        </mxCell>
        <mxCell id="itrtUBMHIKbK6yxUzyWk-71" value="" style="ellipse;whiteSpace=wrap;html=1;aspect=fixed;" vertex="1" parent="1">
          <mxGeometry x="840" y="1210" width="10" height="10" as="geometry" />
        </mxCell>
        <mxCell id="itrtUBMHIKbK6yxUzyWk-72" value="" style="ellipse;whiteSpace=wrap;html=1;aspect=fixed;" vertex="1" parent="1">
          <mxGeometry x="850" y="1210" width="10" height="10" as="geometry" />
        </mxCell>
        <mxCell id="itrtUBMHIKbK6yxUzyWk-73" value="" style="ellipse;whiteSpace=wrap;html=1;aspect=fixed;" vertex="1" parent="1">
          <mxGeometry x="860" y="1210" width="10" height="10" as="geometry" />
        </mxCell>
        <mxCell id="itrtUBMHIKbK6yxUzyWk-74" value="" style="ellipse;whiteSpace=wrap;html=1;aspect=fixed;" vertex="1" parent="1">
          <mxGeometry x="870" y="1210" width="10" height="10" as="geometry" />
        </mxCell>
        <mxCell id="itrtUBMHIKbK6yxUzyWk-75" value="" style="ellipse;whiteSpace=wrap;html=1;aspect=fixed;" vertex="1" parent="1">
          <mxGeometry x="880" y="1210" width="10" height="10" as="geometry" />
        </mxCell>
        <mxCell id="itrtUBMHIKbK6yxUzyWk-76" value="" style="ellipse;whiteSpace=wrap;html=1;aspect=fixed;" vertex="1" parent="1">
          <mxGeometry x="890" y="1210" width="10" height="10" as="geometry" />
        </mxCell>
        <mxCell id="itrtUBMHIKbK6yxUzyWk-77" value="" style="ellipse;whiteSpace=wrap;html=1;aspect=fixed;strokeWidth=2;strokeColor=#4C0099;" vertex="1" parent="1">
          <mxGeometry x="900" y="1210" width="10" height="10" as="geometry" />
        </mxCell>
        <mxCell id="itrtUBMHIKbK6yxUzyWk-78" value="" style="ellipse;whiteSpace=wrap;html=1;aspect=fixed;strokeWidth=2;strokeColor=#663300;" vertex="1" parent="1">
          <mxGeometry x="910" y="1210" width="10" height="10" as="geometry" />
        </mxCell>
        <mxCell id="itrtUBMHIKbK6yxUzyWk-79" value="" style="ellipse;whiteSpace=wrap;html=1;aspect=fixed;" vertex="1" parent="1">
          <mxGeometry x="920" y="1210" width="10" height="10" as="geometry" />
        </mxCell>
        <mxCell id="itrtUBMHIKbK6yxUzyWk-80" value="" style="rounded=0;whiteSpace=wrap;html=1;fillColor=none;strokeColor=#1A1A1A;" vertex="1" parent="1">
          <mxGeometry x="948" y="1205" width="103" height="20" as="geometry" />
        </mxCell>
        <mxCell id="itrtUBMHIKbK6yxUzyWk-81" value="" style="ellipse;whiteSpace=wrap;html=1;aspect=fixed;strokeWidth=2;" vertex="1" parent="1">
          <mxGeometry x="950" y="1210" width="10" height="10" as="geometry" />
        </mxCell>
        <mxCell id="itrtUBMHIKbK6yxUzyWk-82" value="" style="ellipse;whiteSpace=wrap;html=1;aspect=fixed;" vertex="1" parent="1">
          <mxGeometry x="960" y="1210" width="10" height="10" as="geometry" />
        </mxCell>
        <mxCell id="itrtUBMHIKbK6yxUzyWk-83" value="" style="ellipse;whiteSpace=wrap;html=1;aspect=fixed;" vertex="1" parent="1">
          <mxGeometry x="970" y="1210" width="10" height="10" as="geometry" />
        </mxCell>
        <mxCell id="itrtUBMHIKbK6yxUzyWk-84" value="" style="ellipse;whiteSpace=wrap;html=1;aspect=fixed;" vertex="1" parent="1">
          <mxGeometry x="980" y="1210" width="10" height="10" as="geometry" />
        </mxCell>
        <mxCell id="itrtUBMHIKbK6yxUzyWk-85" value="" style="ellipse;whiteSpace=wrap;html=1;aspect=fixed;" vertex="1" parent="1">
          <mxGeometry x="990" y="1210" width="10" height="10" as="geometry" />
        </mxCell>
        <mxCell id="itrtUBMHIKbK6yxUzyWk-86" value="" style="ellipse;whiteSpace=wrap;html=1;aspect=fixed;" vertex="1" parent="1">
          <mxGeometry x="1000" y="1210" width="10" height="10" as="geometry" />
        </mxCell>
        <mxCell id="itrtUBMHIKbK6yxUzyWk-87" value="" style="ellipse;whiteSpace=wrap;html=1;aspect=fixed;" vertex="1" parent="1">
          <mxGeometry x="1010" y="1210" width="10" height="10" as="geometry" />
        </mxCell>
        <mxCell id="itrtUBMHIKbK6yxUzyWk-88" value="" style="ellipse;whiteSpace=wrap;html=1;aspect=fixed;strokeColor=#4C0099;strokeWidth=2;" vertex="1" parent="1">
          <mxGeometry x="1020" y="1210" width="10" height="10" as="geometry" />
        </mxCell>
        <mxCell id="itrtUBMHIKbK6yxUzyWk-89" value="" style="ellipse;whiteSpace=wrap;html=1;aspect=fixed;strokeColor=#663300;strokeWidth=2;" vertex="1" parent="1">
          <mxGeometry x="1030" y="1210" width="10" height="10" as="geometry" />
        </mxCell>
        <mxCell id="itrtUBMHIKbK6yxUzyWk-90" value="" style="ellipse;whiteSpace=wrap;html=1;aspect=fixed;strokeWidth=2;" vertex="1" parent="1">
          <mxGeometry x="1040" y="1210" width="10" height="10" as="geometry" />
        </mxCell>
        <mxCell id="itrtUBMHIKbK6yxUzyWk-91" value="" style="rounded=0;whiteSpace=wrap;html=1;fillColor=none;strokeColor=#1A1A1A;" vertex="1" parent="1">
          <mxGeometry x="1070" y="1205" width="103" height="20" as="geometry" />
        </mxCell>
        <mxCell id="itrtUBMHIKbK6yxUzyWk-92" value="" style="ellipse;whiteSpace=wrap;html=1;aspect=fixed;strokeColor=#000000;strokeWidth=2;" vertex="1" parent="1">
          <mxGeometry x="1071.5" y="1210" width="10" height="10" as="geometry" />
        </mxCell>
        <mxCell id="itrtUBMHIKbK6yxUzyWk-93" value="" style="ellipse;whiteSpace=wrap;html=1;aspect=fixed;" vertex="1" parent="1">
          <mxGeometry x="1081.5" y="1210" width="10" height="10" as="geometry" />
        </mxCell>
        <mxCell id="itrtUBMHIKbK6yxUzyWk-94" value="" style="ellipse;whiteSpace=wrap;html=1;aspect=fixed;" vertex="1" parent="1">
          <mxGeometry x="1091.5" y="1210" width="10" height="10" as="geometry" />
        </mxCell>
        <mxCell id="itrtUBMHIKbK6yxUzyWk-95" value="" style="ellipse;whiteSpace=wrap;html=1;aspect=fixed;" vertex="1" parent="1">
          <mxGeometry x="1101.5" y="1210" width="10" height="10" as="geometry" />
        </mxCell>
        <mxCell id="itrtUBMHIKbK6yxUzyWk-96" value="" style="ellipse;whiteSpace=wrap;html=1;aspect=fixed;" vertex="1" parent="1">
          <mxGeometry x="1111.5" y="1210" width="10" height="10" as="geometry" />
        </mxCell>
        <mxCell id="itrtUBMHIKbK6yxUzyWk-97" value="" style="ellipse;whiteSpace=wrap;html=1;aspect=fixed;" vertex="1" parent="1">
          <mxGeometry x="1121.5" y="1210" width="10" height="10" as="geometry" />
        </mxCell>
        <mxCell id="itrtUBMHIKbK6yxUzyWk-98" value="" style="ellipse;whiteSpace=wrap;html=1;aspect=fixed;" vertex="1" parent="1">
          <mxGeometry x="1131.5" y="1210" width="10" height="10" as="geometry" />
        </mxCell>
        <mxCell id="itrtUBMHIKbK6yxUzyWk-99" value="" style="ellipse;whiteSpace=wrap;html=1;aspect=fixed;strokeColor=#4C0099;strokeWidth=2;" vertex="1" parent="1">
          <mxGeometry x="1141.5" y="1210" width="10" height="10" as="geometry" />
        </mxCell>
        <mxCell id="itrtUBMHIKbK6yxUzyWk-100" value="" style="ellipse;whiteSpace=wrap;html=1;aspect=fixed;strokeWidth=2;strokeColor=#663300;" vertex="1" parent="1">
          <mxGeometry x="1151.5" y="1210" width="10" height="10" as="geometry" />
        </mxCell>
        <mxCell id="itrtUBMHIKbK6yxUzyWk-101" value="" style="ellipse;whiteSpace=wrap;html=1;aspect=fixed;strokeWidth=2;" vertex="1" parent="1">
          <mxGeometry x="1161.5" y="1210" width="10" height="10" as="geometry" />
        </mxCell>
        <mxCell id="itrtUBMHIKbK6yxUzyWk-102" value="" style="endArrow=none;dashed=1;html=1;rounded=0;strokeColor=default;strokeWidth=3;fontStyle=1" edge="1" parent="1">
          <mxGeometry width="50" height="50" relative="1" as="geometry">
            <mxPoint x="707.0000000000005" y="1190" as="sourcePoint" />
            <mxPoint x="1182" y="1190" as="targetPoint" />
          </mxGeometry>
        </mxCell>
        <mxCell id="itrtUBMHIKbK6yxUzyWk-103" value="" style="endArrow=none;dashed=1;html=1;rounded=0;strokeColor=default;strokeWidth=3;" edge="1" parent="1">
          <mxGeometry width="50" height="50" relative="1" as="geometry">
            <mxPoint x="707.0000000000005" y="1243" as="sourcePoint" />
            <mxPoint x="1182" y="1243" as="targetPoint" />
          </mxGeometry>
        </mxCell>
        <mxCell id="itrtUBMHIKbK6yxUzyWk-104" value="" style="endArrow=none;dashed=1;html=1;rounded=0;strokeColor=default;strokeWidth=3;" edge="1" parent="1">
          <mxGeometry width="50" height="50" relative="1" as="geometry">
            <mxPoint x="703" y="1240" as="sourcePoint" />
            <mxPoint x="703" y="1191" as="targetPoint" />
          </mxGeometry>
        </mxCell>
        <mxCell id="itrtUBMHIKbK6yxUzyWk-105" value="" style="endArrow=none;dashed=1;html=1;rounded=0;strokeColor=default;strokeWidth=3;" edge="1" parent="1">
          <mxGeometry width="50" height="50" relative="1" as="geometry">
            <mxPoint x="1181" y="1241" as="sourcePoint" />
            <mxPoint x="1181" y="1192" as="targetPoint" />
          </mxGeometry>
        </mxCell>
        <mxCell id="itrtUBMHIKbK6yxUzyWk-108" value="" style="shape=orEllipse;perimeter=ellipsePerimeter;whiteSpace=wrap;html=1;backgroundOutline=1;strokeColor=#000000;strokeWidth=2;" vertex="1" parent="1">
          <mxGeometry x="928" y="1309" width="20" height="20" as="geometry" />
        </mxCell>
        <mxCell id="itrtUBMHIKbK6yxUzyWk-109" value="" style="line;strokeWidth=2;html=1;strokeColor=#000000;" vertex="1" parent="1">
          <mxGeometry x="869" y="1314" width="51" height="10" as="geometry" />
        </mxCell>
        <mxCell id="itrtUBMHIKbK6yxUzyWk-110" value="" style="line;strokeWidth=2;html=1;strokeColor=#000000;" vertex="1" parent="1">
          <mxGeometry x="960" y="1314" width="48" height="10" as="geometry" />
        </mxCell>
        <mxCell id="itrtUBMHIKbK6yxUzyWk-111" value="" style="endArrow=classic;html=1;rounded=0;strokeColor=#000000;strokeWidth=2;" edge="1" parent="1">
          <mxGeometry width="50" height="50" relative="1" as="geometry">
            <mxPoint x="937" y="1301" as="sourcePoint" />
            <mxPoint x="937" y="1279" as="targetPoint" />
          </mxGeometry>
        </mxCell>
        <mxCell id="itrtUBMHIKbK6yxUzyWk-114" value="" style="rounded=1;whiteSpace=wrap;html=1;strokeColor=#000000;strokeWidth=2;fillColor=none;" vertex="1" parent="1">
          <mxGeometry x="642" y="1095" width="600" height="795" as="geometry" />
        </mxCell>
        <mxCell id="itrtUBMHIKbK6yxUzyWk-115" value="&lt;font style=&quot;font-size: 15px;&quot;&gt;$$Quadruplets~Generator$$&lt;/font&gt;" style="rounded=1;whiteSpace=wrap;html=1;fillStyle=auto;strokeColor=#1A1A1A;strokeWidth=2;fillColor=none;gradientColor=none;" vertex="1" parent="1">
          <mxGeometry x="778" y="1910" width="320" height="40" as="geometry" />
        </mxCell>
        <mxCell id="itrtUBMHIKbK6yxUzyWk-116" value="" style="endArrow=none;dashed=1;html=1;rounded=0;strokeColor=#B5739D;strokeWidth=2;" edge="1" parent="1">
          <mxGeometry width="50" height="50" relative="1" as="geometry">
            <mxPoint x="660" y="1760" as="sourcePoint" />
            <mxPoint x="660" y="1070" as="targetPoint" />
            <Array as="points" />
          </mxGeometry>
        </mxCell>
        <mxCell id="itrtUBMHIKbK6yxUzyWk-117" value="" style="endArrow=none;dashed=1;html=1;rounded=0;strokeColor=#B5739D;strokeWidth=2;entryX=0.213;entryY=0.836;entryDx=0;entryDy=0;entryPerimeter=0;" edge="1" parent="1" target="itrtUBMHIKbK6yxUzyWk-114">
          <mxGeometry width="50" height="50" relative="1" as="geometry">
            <mxPoint x="659" y="1760" as="sourcePoint" />
            <mxPoint x="700.1999999999994" y="1759.6049999999996" as="targetPoint" />
          </mxGeometry>
        </mxCell>
        <mxCell id="itrtUBMHIKbK6yxUzyWk-119" value="" style="endArrow=classic;html=1;rounded=0;strokeColor=#B5739D;strokeWidth=2;dashed=1;" edge="1" parent="1">
          <mxGeometry width="50" height="50" relative="1" as="geometry">
            <mxPoint x="660" y="1069" as="sourcePoint" />
            <mxPoint x="900" y="1070" as="targetPoint" />
          </mxGeometry>
        </mxCell>
        <mxCell id="itrtUBMHIKbK6yxUzyWk-120" value="" style="endArrow=none;dashed=1;html=1;rounded=0;strokeColor=#B5739D;strokeWidth=2;" edge="1" parent="1">
          <mxGeometry width="50" height="50" relative="1" as="geometry">
            <mxPoint x="680" y="1384" as="sourcePoint" />
            <mxPoint x="700" y="1384" as="targetPoint" />
          </mxGeometry>
        </mxCell>
        <mxCell id="itrtUBMHIKbK6yxUzyWk-121" value="" style="endArrow=none;dashed=1;html=1;rounded=0;strokeColor=#B5739D;strokeWidth=2;" edge="1" parent="1">
          <mxGeometry width="50" height="50" relative="1" as="geometry">
            <mxPoint x="678" y="1384" as="sourcePoint" />
            <mxPoint x="678" y="1070" as="targetPoint" />
            <Array as="points" />
          </mxGeometry>
        </mxCell>
        <mxCell id="itrtUBMHIKbK6yxUzyWk-122" value="" style="endArrow=classic;html=1;rounded=0;strokeColor=#B5739D;strokeWidth=2;dashed=1;" edge="1" parent="1">
          <mxGeometry width="50" height="50" relative="1" as="geometry">
            <mxPoint x="680" y="1069" as="sourcePoint" />
            <mxPoint x="900.0000000000005" y="1069" as="targetPoint" />
          </mxGeometry>
        </mxCell>
      </root>
    </mxGraphModel>
  </diagram>
</mxfile>
